<svg width="129" height="129" viewBox="0 0 129 129" fill="none" xmlns="http://www.w3.org/2000/svg">
<g opacity="0.573823">
<path d="M64.8613 17.2515C91.0718 17.2515 112.353 38.5324 112.353 64.7429C112.353 90.9534 91.0718 112.234 64.8613 112.234C38.6508 112.234 17.3699 90.9534 17.3699 64.7429C17.3699 38.5324 38.6508 17.2515 64.8613 17.2515Z" fill="#00559C" fill-opacity="0.3"/>
</g>
<g opacity="0.287843">
<path d="M64.5 0C100.098 0 129 28.9025 129 64.5C129 100.098 100.098 129 64.5 129C28.9025 129 0 100.098 0 64.5C0 28.9025 28.9025 0 64.5 0Z" fill="#00559C" fill-opacity="0.3"/>
</g>
<path d="M62.3195 41.4265C75.3965 39.7253 87.3775 48.9473 89.0787 62.025C90.7799 75.102 81.5572 87.083 68.4802 88.7842C55.4025 90.4854 43.4222 81.2627 41.721 68.1857C40.0198 55.108 49.2419 43.1278 62.3195 41.4265Z" fill="#1073BB"/>
<path d="M62.4182 61.6203C63.1283 60.7255 63.0268 59.4334 62.1842 58.662L59.5335 56.0932C58.656 55.2442 57.259 55.2574 56.3988 56.125C56.3788 56.1509 56.3543 56.1754 56.3279 56.1958C56.2935 56.225 56.2664 56.2456 56.2724 56.2915L54.5471 58.5337C52.8847 60.694 56.2745 65.4868 61.837 69.7668C67.3988 74.0468 72.8122 76.0374 74.4843 73.9523L76.2097 71.7101C76.9559 70.7887 76.8138 69.4346 75.893 68.6883C75.8653 68.6657 75.837 68.6439 75.808 68.6228L75.6427 68.4949L72.4839 66.5885C71.5225 65.9707 70.2476 66.2038 69.5657 67.1197L68.4787 68.531C67.098 67.9344 65.7931 67.1749 64.5912 66.2711C63.4109 65.3425 62.3446 64.2772 61.4156 63.097L62.4182 61.6203ZM73.4993 63.5442C73.1208 63.6176 72.7527 63.3687 72.6799 62.9886C72.6741 62.9604 72.6704 62.9318 72.6687 62.903C72.2346 59.6634 69.269 57.3806 66.0255 57.7898C65.6462 57.8632 65.2789 57.615 65.2055 57.2357C65.2004 57.2073 65.1966 57.1781 65.1942 57.1486C65.1215 56.7693 65.3698 56.4027 65.7492 56.33C65.7775 56.3242 65.806 56.3205 65.8341 56.3189C69.889 55.8042 73.5991 58.6601 74.1382 62.7118C74.2117 63.0918 73.9635 63.4591 73.585 63.5331C73.5566 63.5382 73.5281 63.5419 73.4993 63.5442ZM70.5597 63.9266C70.1797 64.0001 69.8123 63.7512 69.7388 63.3712C69.733 63.343 69.7293 63.3144 69.7277 63.2856C69.5133 61.6647 68.0296 60.522 66.4066 60.7303C66.0279 60.803 65.66 60.5548 65.5871 60.1747C65.5813 60.1465 65.5776 60.1179 65.576 60.0891C65.5032 59.709 65.7516 59.3431 66.131 59.2704C66.1586 59.2647 66.1871 59.261 66.2152 59.2595C68.651 58.9454 70.8817 60.6588 71.2062 63.0932C71.279 63.4733 71.0315 63.8405 70.6523 63.9146C70.6246 63.9196 70.5961 63.9233 70.5673 63.9256L70.5597 63.9266ZM61.182 60.7358C61.4284 60.4523 61.4047 60.0248 61.1273 59.7705L58.4814 57.2011C58.2087 56.9072 57.7491 56.8905 57.4559 57.1631C57.4478 57.1712 57.4397 57.1801 57.4315 57.1875L55.6433 59.5129C54.8119 60.5913 57.766 64.9146 62.66 68.613C67.554 72.3106 72.4199 74.143 73.2506 73.0646L74.9766 70.8224L74.9971 70.7949C75.2305 70.4763 75.1616 70.0285 74.843 69.7951C74.8385 69.7553 74.8035 69.7259 74.7636 69.7297L74.7601 69.7301L71.5878 67.7526C71.2697 67.5553 70.8533 67.6427 70.642 67.9514L69.1724 69.8614C68.9681 70.1203 68.6235 70.226 68.3084 70.1232C66.6054 69.4609 65.0037 68.5595 63.5536 67.4464C62.1067 66.3301 60.8257 65.0137 59.7508 63.5346C59.571 63.2577 59.5829 62.8971 59.7822 62.6332L61.1816 60.7323L61.182 60.7358Z" fill="white"/>
</svg>
