<svg width="129" height="129" viewBox="0 0 129 129" fill="none" xmlns="http://www.w3.org/2000/svg">
<path d="M64.7471 114.056C33.1048 118.594 1.73451 92.1662 11.6386 55.4305C19.1362 27.621 44.8587 6.35066 71.2951 8.50468C97.6901 10.6623 109.482 36.9567 112.206 65.4069C115.163 100.558 90.9828 110.279 64.7471 114.056Z" fill="#3D80F0" fill-opacity="0.15"/>
<path d="M54.9288 20.3334C82.6067 13.3212 112.905 33.8309 107.505 67.3845C103.417 92.7851 82.5415 114.097 58.8678 114.676C35.2306 115.249 22.3298 93.0116 17.282 68.0055C11.4088 37.0716 31.9814 26.1602 54.9288 20.3334Z" fill="#3D80F0" fill-opacity="0.2"/>
<g opacity="0.99">
<path d="M98.1914 52.3203L98.1832 87.6131C98.1831 88.133 98.09 88.6339 97.9238 89.0954C97.3189 90.7776 95.7042 91.9793 93.8165 91.9793L32.5218 91.9663C30.6251 91.9665 29.0089 90.7485 28.4124 89.0562C28.2491 88.5995 28.1633 88.1099 28.1608 87.5985L28.1689 52.3206C28.1693 51.2992 28.5193 50.6833 29.1049 49.9403C29.7984 49.0601 54.0083 49.6474 60.6077 49.3676C61.6084 49.3251 62.7605 49.3244 63.7654 49.3664C70.3847 49.642 96.4444 48.6814 97.1398 49.4917C97.7921 50.2517 98.1875 51.2391 98.1914 52.3203ZM98.1914 52.3203L98.1832 87.6131C98.1831 88.133 98.09 88.6339 97.9238 89.0954C97.3189 90.7776 95.7042 91.9793 93.8165 91.9793L32.5218 91.9663C30.6251 91.9665 29.0089 90.7485 28.4124 89.0562C28.2491 88.5995 28.1633 88.1099 28.1608 87.5985L28.1689 52.3206C28.1693 51.2992 28.5193 50.6833 29.1049 49.9403C29.7984 49.0601 54.0083 49.6474 60.6077 49.3676C61.6084 49.3251 62.7605 49.3244 63.7654 49.3664C70.3847 49.642 96.4444 48.6814 97.1398 49.4917C97.7921 50.2517 98.1875 51.2391 98.1914 52.3203Z" fill="black" fill-opacity="0.2"/>
<path d="M99.3472 51.3809L99.339 86.6736C99.3389 87.1935 99.2458 87.6944 99.0796 88.1559C98.4747 89.8381 96.86 91.0399 94.9724 91.0398L33.6776 91.0268C31.7809 91.0271 30.1647 89.8091 29.5682 88.1168C29.4049 87.6601 29.3192 87.1704 29.3166 86.6591L29.3247 51.3812C29.3251 50.3597 29.6752 49.7438 30.2607 49.0008C30.9542 48.1206 55.1641 48.7079 61.7636 48.4281C62.7642 48.3857 63.9163 48.3849 64.9212 48.4269C71.5406 48.7026 97.6002 47.7419 98.2957 48.5522C98.9479 49.3123 99.3433 50.2997 99.3472 51.3809ZM99.3472 51.3809L99.339 86.6736C99.3389 87.1935 99.2458 87.6944 99.0796 88.1559C98.4747 89.8381 96.86 91.0399 94.9724 91.0398L33.6776 91.0268C31.7809 91.0271 30.1647 89.8091 29.5682 88.1168C29.4049 87.6601 29.3192 87.1704 29.3166 86.6591L29.3247 51.3812C29.3251 50.3597 29.6752 49.7438 30.2607 49.0008C30.9542 48.1206 55.1641 48.7079 61.7636 48.4281C62.7642 48.3857 63.9163 48.3849 64.9212 48.4269C71.5406 48.7026 97.6002 47.7419 98.2957 48.5522C98.9479 49.3123 99.3433 50.2997 99.3472 51.3809Z" fill="#1073BB"/>
<path d="M96.279 50.591L96.3017 86.4672C96.3028 88.126 94.9584 89.4713 93.2996 89.4724L35.712 89.5511C34.0532 89.5522 32.7073 88.2081 32.7063 86.5493L32.6835 50.6735C32.6824 49.0147 34.0269 47.669 35.6857 47.6679L93.2737 47.5893C94.9325 47.5882 96.2779 48.9322 96.279 50.591ZM96.279 50.591L96.3017 86.4672C96.3028 88.126 94.9584 89.4713 93.2996 89.4724L35.712 89.5511C34.0532 89.5522 32.7073 88.2081 32.7063 86.5493L32.6835 50.6735C32.6824 49.0147 34.0269 47.669 35.6857 47.6679L93.2737 47.5893C94.9325 47.5882 96.2779 48.9322 96.279 50.591Z" fill="#ECF2FB"/>
<path d="M99.347 51.7036L99.339 86.6737C99.3389 87.1937 99.2458 87.6946 99.0796 88.1561C98.4747 89.8382 96.86 91.04 94.9724 91.0399L33.6776 91.0269C31.7809 91.0272 30.1647 89.8092 29.5682 88.1169C29.4049 87.6602 29.3192 87.1706 29.3166 86.6592L29.3249 51.7041C29.3262 49.2901 31.2824 48.5043 33.6868 49.9822L63.9837 69.0806L94.9816 49.9952C97.2659 48.6334 99.3378 49.2945 99.347 51.7036ZM99.347 51.7036L99.339 86.6737C99.3389 87.1937 99.2458 87.6946 99.0796 88.1561C98.4747 89.8382 96.86 91.04 94.9724 91.0399L33.6776 91.0269C31.7809 91.0272 30.1647 89.8092 29.5682 88.1169C29.4049 87.6602 29.3192 87.1706 29.3166 86.6592L29.3249 51.7041C29.3262 49.2901 31.2824 48.5043 33.6868 49.9822L63.9837 69.0806L94.9816 49.9952C97.2659 48.6334 99.3378 49.2945 99.347 51.7036ZM99.0797 88.0806C98.4751 89.8069 96.86 91.04 94.9724 91.0399L33.6777 91.0265C31.781 91.0268 30.1645 89.7768 29.5682 88.0405L61.7102 66.4984C61.7102 66.4984 63.195 65.5321 64.4117 65.5461C65.6285 65.5601 66.9215 66.5615 66.9215 66.5615L99.0797 88.0806ZM99.0797 88.0806C98.4751 89.8069 96.86 91.04 94.9724 91.0399L33.6777 91.0265C31.781 91.0268 30.1645 89.7768 29.5682 88.0405L61.7102 66.4984C61.7102 66.4984 63.195 65.5321 64.4117 65.5461C65.6285 65.5601 66.9215 66.5615 66.9215 66.5615L99.0797 88.0806ZM99.0796 88.1561C98.4747 89.8382 96.86 91.04 94.9724 91.0399L33.6776 91.0269C31.7809 91.0272 30.1647 89.8092 29.5682 88.1169L61.7101 67.1235C61.7101 67.1235 63.1948 66.1819 64.4117 66.1955C65.6286 66.2092 66.9219 67.185 66.9219 67.185L99.0796 88.1561ZM99.0796 88.1561C98.4747 89.8382 96.86 91.04 94.9724 91.0399L33.6776 91.0269C31.7809 91.0272 30.1647 89.8092 29.5682 88.1169L61.7101 67.1235C61.7101 67.1235 63.1948 66.1819 64.4117 66.1955C65.6286 66.2092 66.9219 67.185 66.9219 67.185L99.0796 88.1561ZM63.3508 70.3417C58.4147 67.4277 29.6159 50.2965 29.633 49.865C29.7996 49.3832 30.0523 48.9388 30.3806 48.5529C31.1739 47.6191 32.3548 47.0279 33.6869 47.028L94.9817 47.0409C96.2849 47.0414 97.4392 47.6046 98.2392 48.5045C98.5741 48.8813 98.8363 49.3178 99.0129 49.7919C99.0444 50.2418 69.7889 67.4225 64.7814 70.3415C64.316 70.6128 63.8099 70.613 63.3508 70.3417ZM63.3508 70.3417C58.4147 67.4277 29.6159 50.2965 29.633 49.865C29.7996 49.3832 30.0523 48.9388 30.3806 48.5529C31.1739 47.6191 32.3548 47.0279 33.6869 47.028L94.9817 47.0409C96.2849 47.0414 97.4392 47.6046 98.2392 48.5045C98.5741 48.8813 98.8363 49.3178 99.0129 49.7919C99.0444 50.2418 69.7889 67.4225 64.7814 70.3415C64.316 70.6128 63.8099 70.613 63.3508 70.3417Z" fill="#1073BB"/>
<path d="M99.0797 88.0806C98.4751 89.8069 96.86 91.04 94.9724 91.0399L33.6777 91.0265C31.781 91.0268 30.1645 89.7768 29.5682 88.0405L61.7102 66.4984C61.7102 66.4984 63.195 65.5321 64.4117 65.5461C65.6285 65.5601 66.9215 66.5615 66.9215 66.5615L99.0797 88.0806ZM99.0797 88.0806C98.4751 89.8069 96.86 91.04 94.9724 91.0399L33.6777 91.0265C31.781 91.0268 30.1645 89.7768 29.5682 88.0405L61.7102 66.4984C61.7102 66.4984 63.195 65.5321 64.4117 65.5461C65.6285 65.5601 66.9215 66.5615 66.9215 66.5615L99.0797 88.0806ZM99.0796 88.1561C98.4747 89.8382 96.86 91.04 94.9724 91.0399L33.6776 91.0269C31.7809 91.0272 30.1647 89.8092 29.5682 88.1169L61.7101 67.1235C61.7101 67.1235 63.1948 66.1819 64.4117 66.1955C65.6286 66.2092 66.9219 67.185 66.9219 67.185L99.0796 88.1561ZM99.0796 88.1561C98.4747 89.8382 96.86 91.04 94.9724 91.0399L33.6776 91.0269C31.7809 91.0272 30.1647 89.8092 29.5682 88.1169L61.7101 67.1235C61.7101 67.1235 63.1948 66.1819 64.4117 66.1955C65.6286 66.2092 66.9219 67.185 66.9219 67.185L99.0796 88.1561ZM63.3508 70.3417C58.4147 67.4277 29.6159 50.2965 29.633 49.865C29.7996 49.3832 30.0523 48.9388 30.3806 48.5529C31.1739 47.6191 32.3548 47.0279 33.6869 47.028L94.9817 47.0409C96.2849 47.0414 97.4392 47.6046 98.2392 48.5045C98.5741 48.8813 98.8363 49.3178 99.0129 49.7919C99.0444 50.2418 69.7889 67.4225 64.7814 70.3415C64.316 70.6128 63.8099 70.613 63.3508 70.3417ZM63.3508 70.3417C58.4147 67.4277 29.6159 50.2965 29.633 49.865C29.7996 49.3832 30.0523 48.9388 30.3806 48.5529C31.1739 47.6191 32.3548 47.0279 33.6869 47.028L94.9817 47.0409C96.2849 47.0414 97.4392 47.6046 98.2392 48.5045C98.5741 48.8813 98.8363 49.3178 99.0129 49.7919C99.0444 50.2418 69.7889 67.4225 64.7814 70.3415C64.316 70.6128 63.8099 70.613 63.3508 70.3417Z" fill="#202020" fill-opacity="0.3"/>
<path d="M99.0796 88.1561C98.4747 89.8382 96.86 91.04 94.9724 91.0399L33.6776 91.0269C31.7809 91.0272 30.1647 89.8092 29.5682 88.1169L61.7101 67.1235C61.7101 67.1235 63.1948 66.1819 64.4117 66.1955C65.6286 66.2092 66.9219 67.185 66.9219 67.185L99.0796 88.1561ZM99.0796 88.1561C98.4747 89.8382 96.86 91.04 94.9724 91.0399L33.6776 91.0269C31.7809 91.0272 30.1647 89.8092 29.5682 88.1169L61.7101 67.1235C61.7101 67.1235 63.1948 66.1819 64.4117 66.1955C65.6286 66.2092 66.9219 67.185 66.9219 67.185L99.0796 88.1561ZM63.3508 70.3417C58.4147 67.4277 29.6159 50.2965 29.633 49.865C29.7996 49.3832 30.0523 48.9388 30.3806 48.5529C31.1739 47.6191 32.3548 47.0279 33.6869 47.028L94.9817 47.0409C96.2849 47.0414 97.4392 47.6046 98.2392 48.5045C98.5741 48.8813 98.8363 49.3178 99.0129 49.7919C99.0444 50.2418 69.7889 67.4225 64.7814 70.3415C64.316 70.6128 63.8099 70.613 63.3508 70.3417ZM63.3508 70.3417C58.4147 67.4277 29.6159 50.2965 29.633 49.865C29.7996 49.3832 30.0523 48.9388 30.3806 48.5529C31.1739 47.6191 32.3548 47.0279 33.6869 47.028L94.9817 47.0409C96.2849 47.0414 97.4392 47.6046 98.2392 48.5045C98.5741 48.8813 98.8363 49.3178 99.0129 49.7919C99.0444 50.2418 69.7889 67.4225 64.7814 70.3415C64.316 70.6128 63.8099 70.613 63.3508 70.3417Z" fill="#1073BB"/>
<path d="M63.3508 70.3417C58.4147 67.4277 29.6159 50.2965 29.633 49.865C29.7996 49.3832 30.0523 48.9388 30.3806 48.5529C31.1739 47.6191 32.3548 47.0279 33.6869 47.028L94.9817 47.0409C96.2849 47.0414 97.4392 47.6046 98.2392 48.5045C98.5741 48.8813 98.8363 49.3178 99.0129 49.7919C99.0444 50.2418 69.7889 67.4225 64.7814 70.3415C64.316 70.6128 63.8099 70.613 63.3508 70.3417ZM63.3508 70.3417C58.4147 67.4277 29.6159 50.2965 29.633 49.865C29.7996 49.3832 30.0523 48.9388 30.3806 48.5529C31.1739 47.6191 32.3548 47.0279 33.6869 47.028L94.9817 47.0409C96.2849 47.0414 97.4392 47.6046 98.2392 48.5045C98.5741 48.8813 98.8363 49.3178 99.0129 49.7919C99.0444 50.2418 69.7889 67.4225 64.7814 70.3415C64.316 70.6128 63.8099 70.613 63.3508 70.3417Z" fill="#F1F9FF"/>
</g>
<path d="M38.9667 56.9601C41.989 57.1246 44.3093 59.712 44.1448 62.7342C43.9804 65.7565 41.393 68.0768 38.3707 67.9123C35.3485 67.7478 33.0282 65.1605 33.1926 62.1382C33.3571 59.1159 35.9445 56.7956 38.9667 56.9601Z" fill="black" fill-opacity="0.18"/>
<path d="M39.3636 56.0294C42.3859 56.1939 44.7062 58.7813 44.5417 61.8035C44.3772 64.8258 41.7899 67.1461 38.7676 66.9816C35.7453 66.8172 33.425 64.2298 33.5895 61.2075C33.754 58.1853 36.3414 55.865 39.3636 56.0294ZM40.4523 64.5525C39.9789 64.7691 39.3508 64.8619 38.7641 64.8299C37.05 64.7366 35.8784 63.5767 35.983 61.6555C36.1026 59.4581 37.7193 58.1615 39.4795 58.2573C41.2627 58.3543 42.1657 59.5688 42.0843 61.0644C42.0123 62.3874 41.3562 62.9925 40.8627 62.9479C40.5412 62.9189 40.4776 62.6039 40.6296 61.9314L41.0905 59.8219C40.8116 59.6452 40.2433 59.4873 39.7371 59.4598C38.0805 59.3696 36.9755 60.5903 36.8992 61.9938C36.8478 62.9372 37.3585 63.5188 38.1063 63.5595C38.7161 63.5926 39.25 63.3218 39.6386 62.7544L39.6616 62.7557C39.6859 63.3685 40.062 63.6659 40.6028 63.6953C41.8452 63.7629 42.8462 62.7559 42.9376 61.0762C43.0428 59.1435 41.669 57.6726 39.6443 57.5624C37.0442 57.4209 35.2308 59.3645 35.103 61.7114C34.9803 63.9664 36.5855 65.4268 38.4951 65.5307C39.312 65.5751 39.9159 65.5041 40.623 65.2311L40.4523 64.5525ZM39.6371 61.5082C39.4972 62.1698 39.0192 62.6861 38.5936 62.6629C38.214 62.6423 38.0334 62.3555 38.0572 61.9183C38.1054 61.0325 38.7443 60.3173 39.5036 60.3586C39.6531 60.3667 39.7669 60.3959 39.8576 60.424L39.6371 61.5082Z" fill="#E1EAF5"/>
<path d="M40.4523 64.5524C39.9789 64.7689 39.3508 64.8617 38.7641 64.8298C37.05 64.7365 35.8784 63.5766 35.983 61.6553C36.1026 59.458 37.7193 58.1614 39.4795 58.2572C41.2627 58.3542 42.1657 59.5687 42.0843 61.0643C42.0123 62.3873 41.3562 62.9924 40.8626 62.9478C40.5412 62.9188 40.4776 62.6038 40.6295 61.9313L41.0905 59.8218C40.8116 59.6451 40.2433 59.4872 39.7371 59.4597C38.0805 59.3695 36.9755 60.5902 36.8991 61.9937C36.8478 62.9371 37.3585 63.5187 38.1063 63.5594C38.7161 63.5925 39.25 63.3217 39.6386 62.7543L39.6616 62.7556C39.6859 63.3684 40.062 63.6658 40.6028 63.6952C41.8452 63.7628 42.8462 62.7557 42.9376 61.0761C43.0428 59.1434 41.669 57.6725 39.6442 57.5623C37.0442 57.4208 35.2307 59.3644 35.103 61.7113C34.9803 63.9662 36.5855 65.4267 38.4951 65.5306C39.312 65.575 39.9159 65.504 40.623 65.231L40.4523 64.5524ZM39.6371 61.5081C39.4972 62.1697 39.0192 62.686 38.5935 62.6628C38.214 62.6422 38.0334 62.3554 38.0572 61.9182C38.1054 61.0324 38.7443 60.3172 39.5036 60.3585C39.6531 60.3666 39.7669 60.3958 39.8576 60.4239L39.6371 61.5081Z" fill="#1E6EB2"/>
<path d="M96.3247 76.3829V86.0089C96.3247 86.5927 95.8507 87.0667 95.2669 87.0667H69.0863C68.5025 87.0667 68.0285 86.5927 68.0285 86.0089V76.3829C68.0285 75.7991 68.5025 75.3251 69.0863 75.3251H95.2669C95.8507 75.3251 96.3247 75.7991 96.3247 76.3829ZM96.3247 76.3829V86.0089C96.3247 86.5927 95.8507 87.0667 95.2669 87.0667H69.0863C68.5025 87.0667 68.0285 86.5927 68.0285 86.0089V76.3829C68.0285 75.7991 68.5025 75.3251 69.0863 75.3251H95.2669C95.8507 75.3251 96.3247 75.7991 96.3247 76.3829ZM96.9593 75.7482V85.3742C96.9593 85.958 96.4853 86.432 95.9015 86.432H69.721C69.1372 86.432 68.6632 85.958 68.6632 85.3742V75.7482C68.6632 75.1644 69.1372 74.6904 69.721 74.6904H95.9015C96.4853 74.6904 96.9593 75.1644 96.9593 75.7482ZM96.9593 75.7482V85.3742C96.9593 85.958 96.4853 86.432 95.9015 86.432H69.721C69.1372 86.432 68.6632 85.958 68.6632 85.3742V75.7482C68.6632 75.1644 69.1372 74.6904 69.721 74.6904H95.9015C96.4853 74.6904 96.9593 75.1644 96.9593 75.7482ZM74.9835 75.616C77.7128 75.616 79.9288 77.832 79.9288 80.5612C79.9288 83.2905 77.7128 85.5064 74.9835 85.5064C72.2543 85.5064 70.0383 83.2905 70.0383 80.5612C70.0383 77.832 72.2543 75.616 74.9835 75.616ZM74.9835 75.616C77.7128 75.616 79.9288 77.832 79.9288 80.5612C79.9288 83.2905 77.7128 85.5064 74.9835 85.5064C72.2543 85.5064 70.0383 83.2905 70.0383 80.5612C70.0383 77.832 72.2543 75.616 74.9835 75.616ZM74.9835 77.1763C76.1081 77.1763 77.0198 78.088 77.0198 79.2125C77.0198 80.1398 76.4 81.3358 75.5521 81.727C75.4642 81.7676 78.0512 82.0025 78.1638 83.4447C77.6545 84.1445 76.3983 84.8189 74.9835 84.8189C73.4628 84.8189 72.1936 83.9594 71.7041 83.4118C71.7705 81.9628 74.4317 81.7399 74.3205 81.6796C73.5214 81.2465 72.9473 80.105 72.9473 79.2125C72.9473 78.088 73.859 77.1763 74.9835 77.1763ZM74.9835 77.1763C76.1081 77.1763 77.0198 78.088 77.0198 79.2125C77.0198 80.1398 76.4 81.3358 75.5521 81.727C75.4642 81.7676 78.0512 82.0025 78.1638 83.4447C77.6545 84.1445 76.3983 84.8189 74.9835 84.8189C73.4628 84.8189 72.1936 83.9594 71.7041 83.4118C71.7705 81.9628 74.4317 81.7399 74.3205 81.6796C73.5214 81.2465 72.9473 80.105 72.9473 79.2125C72.9473 78.088 73.859 77.1763 74.9835 77.1763Z" fill="black" fill-opacity="0.17"/>
<path d="M96.9593 75.7482V85.3742C96.9593 85.958 96.4853 86.432 95.9015 86.432H69.721C69.1372 86.432 68.6632 85.958 68.6632 85.3742V75.7482C68.6632 75.1644 69.1372 74.6904 69.721 74.6904H95.9015C96.4853 74.6904 96.9593 75.1644 96.9593 75.7482ZM96.9593 75.7482V85.3742C96.9593 85.958 96.4853 86.432 95.9015 86.432H69.721C69.1372 86.432 68.6632 85.958 68.6632 85.3742V75.7482C68.6632 75.1644 69.1372 74.6904 69.721 74.6904H95.9015C96.4853 74.6904 96.9593 75.1644 96.9593 75.7482ZM74.9835 75.616C77.7128 75.616 79.9287 77.832 79.9287 80.5612C79.9287 83.2905 77.7128 85.5064 74.9835 85.5064C72.2543 85.5064 70.0383 83.2905 70.0383 80.5612C70.0383 77.832 72.2543 75.616 74.9835 75.616ZM74.9835 75.616C77.7128 75.616 79.9287 77.832 79.9287 80.5612C79.9287 83.2905 77.7128 85.5064 74.9835 85.5064C72.2543 85.5064 70.0383 83.2905 70.0383 80.5612C70.0383 77.832 72.2543 75.616 74.9835 75.616ZM74.9835 77.1763C76.1081 77.1763 77.0198 78.088 77.0198 79.2125C77.0198 80.1398 76.4 81.3358 75.5521 81.727C75.4642 81.7676 78.0512 82.0025 78.1638 83.4447C77.6545 84.1445 76.3983 84.8189 74.9835 84.8189C73.4628 84.8189 72.1936 83.9594 71.7041 83.4118C71.7705 81.9628 74.4317 81.7399 74.3205 81.6796C73.5214 81.2465 72.9473 80.105 72.9473 79.2125C72.9473 78.088 73.859 77.1763 74.9835 77.1763ZM74.9835 77.1763C76.1081 77.1763 77.0198 78.088 77.0198 79.2125C77.0198 80.1398 76.4 81.3358 75.5521 81.727C75.4642 81.7676 78.0512 82.0025 78.1638 83.4447C77.6545 84.1445 76.3983 84.8189 74.9835 84.8189C73.4628 84.8189 72.1936 83.9594 71.7041 83.4118C71.7705 81.9628 74.4317 81.7399 74.3205 81.6796C73.5214 81.2465 72.9473 80.105 72.9473 79.2125C72.9473 78.088 73.859 77.1763 74.9835 77.1763Z" fill="white"/>
<path d="M74.9835 75.6162C77.7128 75.6162 79.9288 77.8322 79.9288 80.5614C79.9288 83.2907 77.7128 85.5066 74.9835 85.5066C72.2543 85.5066 70.0383 83.2907 70.0383 80.5614C70.0383 77.8322 72.2543 75.6162 74.9835 75.6162ZM74.9835 75.6162C77.7128 75.6162 79.9288 77.8322 79.9288 80.5614C79.9288 83.2907 77.7128 85.5066 74.9835 85.5066C72.2543 85.5066 70.0383 83.2907 70.0383 80.5614C70.0383 77.8322 72.2543 75.6162 74.9835 75.6162ZM74.9835 77.1765C76.1081 77.1765 77.0198 78.0882 77.0198 79.2127C77.0198 80.14 76.4 81.3361 75.5521 81.7272C75.4642 81.7678 78.0512 82.0027 78.1638 83.4449C77.6545 84.1447 76.3984 84.8191 74.9835 84.8191C73.4629 84.8191 72.1936 83.9596 71.7042 83.412C71.7705 81.963 74.4317 81.7401 74.3205 81.6798C73.5215 81.2467 72.9473 80.1052 72.9473 79.2127C72.9473 78.0882 73.859 77.1765 74.9835 77.1765ZM74.9835 77.1765C76.1081 77.1765 77.0198 78.0882 77.0198 79.2127C77.0198 80.14 76.4 81.3361 75.5521 81.7272C75.4642 81.7678 78.0512 82.0027 78.1638 83.4449C77.6545 84.1447 76.3984 84.8191 74.9835 84.8191C73.4629 84.8191 72.1936 83.9596 71.7042 83.412C71.7705 81.963 74.4317 81.7401 74.3205 81.6798C73.5215 81.2467 72.9473 80.1052 72.9473 79.2127C72.9473 78.0882 73.859 77.1765 74.9835 77.1765Z" fill="#DFE5F3"/>
<path d="M74.9835 77.1763C76.1081 77.1763 77.0198 78.088 77.0198 79.2125C77.0198 80.1398 76.4 81.3359 75.5521 81.727C75.4642 81.7677 78.0511 82.0025 78.1638 83.4447C77.6545 84.1445 76.3983 84.8189 74.9835 84.8189C73.4628 84.8189 72.1936 83.9594 71.7041 83.4118C71.7705 81.9628 74.4317 81.7399 74.3205 81.6796C73.5214 81.2465 72.9473 80.105 72.9473 79.2125C72.9473 78.088 73.859 77.1763 74.9835 77.1763ZM74.9835 77.1763C76.1081 77.1763 77.0198 78.088 77.0198 79.2125C77.0198 80.1398 76.4 81.3359 75.5521 81.727C75.4642 81.7677 78.0511 82.0025 78.1638 83.4447C77.6545 84.1445 76.3983 84.8189 74.9835 84.8189C73.4628 84.8189 72.1936 83.9594 71.7041 83.4118C71.7705 81.9628 74.4317 81.7399 74.3205 81.6796C73.5214 81.2465 72.9473 80.105 72.9473 79.2125C72.9473 78.088 73.859 77.1763 74.9835 77.1763Z" fill="white"/>
<path d="M81.9915 79.3975H94.7379M81.9915 79.3975H94.7379H81.9915ZM81.9915 79.3975H94.7379H81.9915ZM81.9915 83.8402H94.7379H81.9915ZM81.9915 81.6188H94.7379H81.9915Z" stroke="#DEE4F3" stroke-width="8.2" stroke-linecap="round" stroke-linejoin="round"/>
<path d="M81.9915 77.1235H88.1267M81.9915 77.1235H88.1267H81.9915Z" stroke="#1E6EB2" stroke-width="8.2" stroke-linecap="round" stroke-linejoin="round"/>
<path d="M11.6767 90.7381L17.8229 89.2214L12.2768 86.7852L12.8265 88.3955L10.9458 89.1241L11.6767 90.7381ZM17.8229 89.2214L10.9582 87.8646L4.1533 90.9791L17.8229 89.2214ZM12.2768 86.7852L17.8229 89.2214L13.9787 83.3558L12.2768 86.7852Z" fill="black" fill-opacity="0.2"/>
<path d="M11.8275 90.1644L17.9737 88.6476L12.4275 86.2115L12.9772 87.8217L11.0965 88.5503L11.8275 90.1644ZM17.9737 88.6476L11.1089 87.2908L4.30406 90.4054L17.9737 88.6476ZM12.4275 86.2115L17.9737 88.6476L14.1295 82.7821L12.4275 86.2115Z" fill="#A6BDDB"/>
<path d="M17.9737 88.6476L11.1089 87.2908L4.30406 90.4054L17.9737 88.6476ZM12.4275 86.2115L17.9737 88.6476L14.1295 82.7821L12.4275 86.2115Z" fill="#D3DFED"/>
</svg>
