<svg width="512" height="512" viewBox="0 0 512 512" fill="none" xmlns="http://www.w3.org/2000/svg">
<path d="M159.774 113.95C159.774 113.95 125.694 27.9511 58.0959 95.1201C-15.4371 168.186 41.3939 210.207 57.1119 293.76C73.6019 381.416 41.2769 458.303 169.643 414.835C305 368.999 380.5 494.999 454.941 354.715C495.301 278.657 511.128 157.227 432.605 119.776C401.287 104.839 323.584 107.544 289.597 119.52C189.735 154.71 159.774 113.95 159.774 113.95Z" fill="#B4D3FC"/>
<path d="M432.062 116.519C400.744 101.582 321.041 104.288 287.054 116.265C187.192 151.455 159.23 110.694 159.23 110.694C159.23 110.694 125.151 24.695 57.553 91.864C-15.98 164.93 40.851 206.95 56.568 290.502C59.108 304.001 60.854 316.219 62.483 327.195C170.121 325.84 359.708 308.838 487.02 201.666C479.499 161.999 463.092 131.319 432.062 116.519Z" fill="#BDD9FC"/>
<path d="M285.649 118.282C185.787 153.472 157.825 111.712 157.825 111.712C157.825 111.712 123.746 25.7131 56.148 92.8821C-0.397961 149.068 20.145 186.9 39.802 239.373C160.758 227.499 310.717 195.801 428.7 116.712C396.446 104.406 318.948 106.548 285.649 118.282Z" fill="#C7DFFC"/>
<path d="M412.011 132.767C431.626 132.767 448.091 146.512 452.279 164.878C467.808 168.801 479.337 182.891 479.337 199.623C479.337 219.379 463.263 235.453 443.506 235.453H342.963C326.02 235.453 312.236 221.668 312.236 204.725C312.236 188.778 324.447 175.629 340.01 174.139C343.814 159.512 357.131 148.682 372.93 148.682C374.985 148.682 377.019 148.866 379.013 149.226C386.657 139.049 398.756 132.767 412.011 132.767Z" fill="#E0ECFD"/>
<path d="M168.212 39.8009C186.838 39.8009 201.993 54.9549 201.993 73.5819V73.6639C210.909 76.6779 217.204 85.1339 217.204 94.8589C217.204 95.1099 217.2 95.3609 217.192 95.6119C226.483 100.141 232.5 109.541 232.5 120.064C232.5 135.08 220.283 147.297 205.267 147.297H83.1514C69.4644 147.297 58.3264 136.16 58.3264 122.472C58.3264 111.256 65.7634 101.656 76.2004 98.6329C77.0684 82.8819 90.1574 70.3329 106.121 70.3329C109.393 70.3329 112.655 70.8759 115.741 71.9209C120.514 65.2419 128.302 61.1109 136.604 61.1109C136.682 61.1109 136.761 61.1109 136.838 61.1119C141.883 48.3889 154.273 39.8009 168.212 39.8009Z" fill="#E0ECFD"/>
<path d="M223.924 80.6707C231.709 80.6707 238.541 84.8267 242.319 91.0367C243.777 90.6777 245.291 90.4897 246.836 90.4897C256.518 90.4897 264.512 97.8587 265.504 107.283C272.359 110.206 277.176 117.011 277.176 124.921C277.176 135.488 268.578 144.087 258.012 144.087H194.084C183.518 144.087 174.921 135.488 174.921 124.921C174.921 115.746 181.402 108.056 190.027 106.191C192.464 101.123 197.34 97.4417 203.123 96.6797C205.562 87.4747 213.964 80.6707 223.924 80.6707Z" fill="#F4F8FD"/>
<path d="M458.532 272.808C442.745 253.984 414.686 251.521 395.861 267.308C386.546 275.12 381.245 285.94 380.173 297.156L361.66 311.743L382.985 317.508C384.702 321.925 387.148 326.145 390.363 329.979C406.15 348.803 434.207 351.265 453.032 335.478C471.856 319.691 474.319 291.633 458.532 272.808Z" fill="#CFE2FC"/>
<path d="M445.384 283.43C438.817 276.545 427.91 276.288 421.025 282.857C414.457 275.972 403.551 275.716 396.666 282.284C389.78 288.852 389.524 299.757 396.092 306.642L419.878 331.576L444.811 307.789C451.696 301.221 451.952 290.316 445.384 283.43Z" fill="#E0ECFD"/>
<path d="M173.664 201.396V171.999C173.664 168.154 170.518 165.008 166.674 165.008H39.4089C35.5639 165.008 32.4189 168.154 32.4189 171.999V210.984C32.4189 214.829 35.5639 217.975 39.4089 217.975H139.179L184.043 230.438L173.664 201.396Z" fill="#F4F8FD"/>
<path d="M54.069 194.187L46.907 197.953L48.274 189.978L42.479 184.33L50.487 183.166L54.069 175.911L57.649 183.166L65.657 184.33L59.863 189.978L61.231 197.953L54.069 194.187Z" fill="#CFE2FC"/>
<path d="M80.091 194.187L72.929 197.953L74.296 189.978L68.501 184.33L76.509 183.166L80.091 175.911L83.671 183.166L91.679 184.33L85.885 189.978L87.253 197.953L80.091 194.187Z" fill="#CFE2FC"/>
<path d="M104.69 194.187L97.5281 197.953L98.8961 189.978L93.1021 184.33L101.109 183.166L104.69 175.911L108.271 183.166L116.278 184.33L110.484 189.978L111.852 197.953L104.69 194.187Z" fill="#CFE2FC"/>
<path d="M130.712 194.187L123.55 197.953L124.918 189.978L119.124 184.33L127.131 183.166L130.712 175.911L134.293 183.166L142.3 184.33L136.506 189.978L137.874 197.953L130.712 194.187Z" fill="#CFE2FC"/>
<path d="M155.085 194.187L147.923 197.953L149.291 189.978L143.497 184.33L151.504 183.166L155.085 175.911L158.666 183.166L166.673 184.33L160.879 189.978L162.247 197.953L155.085 194.187Z" fill="#CFE2FC"/>
<path d="M217.777 313.249C219.031 300.061 219.801 283.168 219.801 283.168C219.801 283.168 209.947 290.343 200.267 297.478C190.081 291.634 177.413 288.169 163.683 288.169C130.047 288.169 102.779 308.956 102.779 334.599C102.779 360.241 130.047 381.028 163.683 381.028C197.319 381.028 224.587 360.241 224.587 334.599C224.587 326.9 222.127 319.642 217.777 313.249Z" fill="#CFE2FC"/>
<path d="M163.682 349.755L146.254 358.916L149.582 339.511L135.482 325.766L154.968 322.936L163.682 305.277L172.396 322.936L191.882 325.766L177.782 339.511L181.11 358.916L163.682 349.755Z" fill="#F4F8FD"/>
<path d="M232.182 106.057C298.991 110.399 349.709 168.168 345.367 234.976C341.025 301.784 283.256 352.502 216.448 348.16C149.639 343.818 98.9215 286.05 103.263 219.241C107.605 152.433 165.374 101.715 232.182 106.057Z" fill="url(#paint0_linear_1076_63)" fill-opacity="0.2"/>
<path d="M252.746 132.415C252.746 132.415 204.716 119.341 166.449 164.532" stroke="#1073BB" stroke-width="6.91642"/>
<path d="M385.854 404.298L313.289 321.647L325.416 311L397.981 393.653L385.854 404.298Z" fill="url(#paint1_linear_1076_63)"/>
<path d="M335.938 362.53L388.609 437.092C398.203 450.676 417.455 452.95 429.953 441.978C442.37 431.077 442.696 411.85 430.656 400.533L364.086 337.957C358.643 332.582 349.973 332.328 344.225 337.375L337.994 342.845C332.277 347.864 331.381 356.437 335.938 362.53Z" fill="#1073BB"/>
<path d="M241.308 80.5216C165.783 75.6131 100.58 132.858 95.6715 208.383C90.763 283.908 148.008 349.112 223.532 354.021C299.058 358.929 364.262 301.683 369.171 226.158C374.079 150.633 316.833 85.4301 241.308 80.5216ZM226.911 319.532C169.827 315.822 126.559 266.538 130.269 209.453C133.979 152.369 183.262 109.101 240.346 112.811C297.43 116.521 340.699 165.804 336.989 222.889C333.279 279.973 283.995 323.242 226.911 319.532Z" fill="#1073BB"/>
<path d="M374.532 417.733L384.485 431.822L425.405 395.896L412.849 384.093L374.532 417.733Z" fill="white"/>
<path d="M235.742 171.396L251.959 204.256L288.222 209.525L261.981 235.102L268.176 271.219L235.742 254.166L203.308 271.219L209.502 235.102L183.262 209.525L219.525 204.256L235.742 171.396Z" fill="url(#paint2_linear_1076_63)"/>
<path d="M421.022 309.754L417.534 312.153C415.423 313.604 412.98 313.945 410.552 313.127L406.541 311.774C406.074 311.617 405.58 311.769 405.283 312.163C404.986 312.556 404.974 313.073 405.253 313.478L407.653 316.967C409.104 319.078 409.445 321.52 408.627 323.948L407.274 327.959C407.117 328.427 407.269 328.921 407.663 329.217C408.056 329.514 408.572 329.526 408.979 329.247L412.467 326.848C414.578 325.396 417.019 325.055 419.448 325.874L423.46 327.226C423.927 327.384 424.42 327.231 424.717 326.838C425.014 326.444 425.027 325.929 424.747 325.522L422.348 322.034C420.896 319.922 420.556 317.48 421.374 315.053L422.726 311.041C422.884 310.573 422.731 310.079 422.338 309.783C421.945 309.486 421.429 309.474 421.022 309.754Z" fill="white"/>
<defs>
<linearGradient id="paint0_linear_1076_63" x1="148.356" y1="146.263" x2="310.72" y2="308.708" gradientUnits="userSpaceOnUse">
<stop stop-color="white"/>
<stop offset="0.48" stop-color="#DABD9D"/>
<stop offset="1" stop-color="#B57A3A"/>
</linearGradient>
<linearGradient id="paint1_linear_1076_63" x1="327.291" y1="338.122" x2="347.645" y2="331.454" gradientUnits="userSpaceOnUse">
<stop stop-color="#FF9B46"/>
<stop offset="0.43" stop-color="#FFBD6A"/>
<stop offset="1" stop-color="#FFE08D"/>
</linearGradient>
<linearGradient id="paint2_linear_1076_63" x1="207.71" y1="253.038" x2="269.847" y2="196.293" gradientUnits="userSpaceOnUse">
<stop stop-color="#FF9B46"/>
<stop offset="0.48" stop-color="#FFB763"/>
<stop offset="1" stop-color="#FFD380"/>
</linearGradient>
</defs>
</svg>
