<svg width="511" height="381" viewBox="0 0 511 381" fill="none" xmlns="http://www.w3.org/2000/svg">
<path d="M511 334.817H0V335.072H511V334.817Z" fill="#EBEBEB"/>
<path d="M117.868 344.554H92.4512V344.809H117.868V344.554Z" fill="#EBEBEB"/>
<path d="M183.787 341.781H155.682V342.037H183.787V341.781Z" fill="#EBEBEB"/>
<path d="M108.109 354.053H48.7207V354.308H108.109V354.053Z" fill="#EBEBEB"/>
<path d="M459.8 352.336H437.725V352.592H459.8V352.336Z" fill="#EBEBEB"/>
<path d="M248.06 343.756H219.516V344.011H248.06V343.756Z" fill="#EBEBEB"/>
<path d="M379.048 348.02H307.283V348.275H379.048V348.02Z" fill="#EBEBEB"/>
<path d="M242.216 289.207H44.8781C43.3322 289.204 41.8505 288.588 40.7583 287.493C39.6662 286.398 39.0527 284.915 39.0527 283.368V5.78823C39.0662 4.25018 39.6856 2.77956 40.7763 1.69579C41.867 0.612017 43.341 0.00263476 44.8781 0H242.216C243.764 0 245.248 0.615217 246.343 1.71031C247.437 2.8054 248.052 4.29067 248.052 5.83936V283.368C248.052 284.916 247.437 286.402 246.343 287.497C245.248 288.592 243.764 289.207 242.216 289.207ZM44.8781 0.204532C43.4 0.207241 41.9833 0.796715 40.939 1.84357C39.8947 2.89042 39.3082 4.30911 39.3082 5.78823V283.368C39.3082 284.847 39.8947 286.265 40.939 287.312C41.9833 288.359 43.4 288.949 44.8781 288.951H242.216C243.695 288.949 245.113 288.359 246.159 287.313C247.205 286.266 247.794 284.848 247.796 283.368V5.78823C247.794 4.30817 247.205 2.88951 246.159 1.84294C245.113 0.796383 243.695 0.207235 242.216 0.204532H44.8781Z" fill="#EBEBEB"/>
<path d="M463.283 289.207H265.935C264.388 289.204 262.906 288.588 261.812 287.494C260.718 286.399 260.102 284.915 260.1 283.368V5.78823C260.116 4.24925 260.737 2.77863 261.83 1.69515C262.922 0.611659 264.397 0.00260602 265.935 0H463.283C464.819 0.00532241 466.29 0.615893 467.379 1.69938C468.467 2.78286 469.085 4.25195 469.099 5.78823V283.368C469.099 284.913 468.487 286.395 467.397 287.489C466.307 288.584 464.828 289.202 463.283 289.207ZM265.935 0.204532C264.456 0.207235 263.038 0.796383 261.992 1.84294C260.947 2.88951 260.358 4.30817 260.355 5.78823V283.368C260.358 284.848 260.947 286.266 261.992 287.313C263.038 288.359 264.456 288.949 265.935 288.951H463.283C464.762 288.949 466.18 288.359 467.226 287.313C468.272 286.266 468.861 284.848 468.864 283.368V5.78823C468.861 4.30817 468.272 2.88951 467.226 1.84294C466.18 0.796383 464.762 0.207235 463.283 0.204532H265.935Z" fill="#EBEBEB"/>
<path d="M216.664 29.156H60.9727V223.195H216.664V29.156Z" fill="#E6E6E6"/>
<path d="M220.099 29.156H62.5781V223.195H220.099V29.156Z" fill="#F5F5F5"/>
<path d="M63.119 26.5052H218.708C219.072 26.5052 219.42 26.3609 219.677 26.104C219.934 25.8472 220.078 25.4988 220.078 25.1356C220.075 24.7741 219.93 24.4284 219.673 24.1738C219.417 23.9191 219.07 23.7762 218.708 23.7762H63.119C62.7594 23.7789 62.4152 23.923 62.1608 24.1773C61.9065 24.4317 61.7624 24.7759 61.7598 25.1356C61.7598 25.4971 61.9026 25.8439 62.1573 26.1004C62.4119 26.357 62.7576 26.5025 63.119 26.5052Z" fill="#E6E6E6"/>
<path d="M216.664 223.195H60.9727V225.894H216.664V223.195Z" fill="#E6E6E6"/>
<path d="M235.878 223.195H85.9102V225.894H235.878V223.195Z" fill="#F5F5F5"/>
<path d="M215.273 216.915V35.4346L67.4105 35.4346V216.915H215.273Z" fill="#FAFAFA"/>
<path d="M118.768 216.915L130.173 35.4346H150.685L139.279 216.915H118.768Z" fill="white"/>
<path d="M145.084 216.915L156.489 35.4346H166.004L154.599 216.915H145.084Z" fill="white"/>
<path d="M215.273 156.743V34.5864H214.66V156.743H215.273Z" fill="#E6E6E6"/>
<g opacity="0.4">
<path opacity="0.4" d="M57.3457 35.1186V210.197C66.4108 210.197 74.5971 201.781 78.3069 188.721C86.1661 161.181 98.2768 116.113 102.017 34.1471C102.59 21.4867 99.9733 21.0162 96.519 21.0162H61.1373C59.0422 21.0469 57.3457 27.3465 57.3457 35.1186Z" fill="#E6E6E6"/>
</g>
<g opacity="0.4">
<path opacity="0.4" d="M224.053 35.1186V210.197C214.998 210.197 206.812 201.781 203.092 188.721C195.243 161.181 183.132 116.113 179.382 34.1471C178.809 21.4867 181.426 21.0162 184.88 21.0162H220.262C222.357 21.0469 224.053 27.3465 224.053 35.1186Z" fill="#E6E6E6"/>
</g>
<path d="M183.785 255.787H165.727V334.807H183.785V255.787Z" fill="#E6E6E6"/>
<path d="M175.969 334.816H183.787V321.706H175.785L175.969 334.816Z" fill="#F5F5F5"/>
<path d="M79.6935 255.787H61.6348V334.807H79.6935V255.787Z" fill="#E6E6E6"/>
<path d="M183.785 255.787H72.8672V330.297H183.785V255.787Z" fill="#F5F5F5"/>
<path d="M80.6855 334.816H72.8672V321.706H80.8796L80.6855 334.816Z" fill="#F5F5F5"/>
<path d="M177.724 262.055H78.9375V289.534H177.724V262.055Z" fill="#F0F0F0"/>
<path d="M128.332 280.504C126.744 280.506 125.192 280.037 123.871 279.156C122.55 278.274 121.52 277.021 120.911 275.553C120.303 274.086 120.143 272.471 120.452 270.913C120.762 269.355 121.526 267.923 122.649 266.8C123.771 265.677 125.202 264.912 126.759 264.602C128.316 264.293 129.93 264.453 131.396 265.062C132.863 265.671 134.116 266.701 134.996 268.023C135.877 269.345 136.346 270.898 136.344 272.487C136.342 274.612 135.496 276.65 133.994 278.153C132.492 279.656 130.456 280.502 128.332 280.504ZM128.332 265.308C126.917 265.308 125.534 265.728 124.357 266.514C123.181 267.301 122.264 268.419 121.722 269.727C121.181 271.035 121.039 272.474 121.315 273.863C121.591 275.251 122.273 276.527 123.273 277.528C124.274 278.529 125.548 279.211 126.936 279.487C128.324 279.764 129.762 279.622 131.069 279.08C132.377 278.538 133.494 277.621 134.28 276.443C135.066 275.266 135.486 273.882 135.486 272.466C135.486 270.568 134.732 268.747 133.39 267.404C132.049 266.062 130.229 265.308 128.332 265.308Z" fill="white"/>
<path d="M177.724 296.183H78.9375V323.661H177.724V296.183Z" fill="#F0F0F0"/>
<path d="M128.332 314.631C126.745 314.633 125.192 314.164 123.872 313.283C122.551 312.402 121.521 311.149 120.912 309.683C120.304 308.216 120.143 306.601 120.452 305.043C120.76 303.485 121.523 302.054 122.645 300.93C123.767 299.807 125.196 299.041 126.753 298.73C128.309 298.42 129.923 298.578 131.389 299.186C132.856 299.793 134.109 300.822 134.991 302.142C135.873 303.463 136.344 305.015 136.344 306.603C136.342 308.73 135.497 310.769 133.995 312.273C132.493 313.778 130.457 314.626 128.332 314.631ZM128.332 299.424C126.917 299.424 125.534 299.844 124.357 300.631C123.181 301.417 122.264 302.535 121.722 303.843C121.181 305.151 121.039 306.591 121.315 307.979C121.591 309.368 122.273 310.644 123.273 311.645C124.274 312.646 125.548 313.328 126.936 313.604C128.324 313.88 129.762 313.738 131.069 313.197C132.377 312.655 133.494 311.737 134.28 310.56C135.066 309.383 135.486 307.999 135.486 306.583C135.486 304.684 134.732 302.863 133.39 301.521C132.049 300.178 130.229 299.424 128.332 299.424Z" fill="white"/>
<path d="M304.616 334.817H366.242V243.422H304.616V334.817Z" fill="#E6E6E6"/>
<path d="M447.236 243.412H366.242V334.807H447.236V243.412Z" fill="#F0F0F0"/>
<g style="mix-blend-mode:multiply" opacity="0.7">
<path d="M304.625 245.1L447.234 245.1V235.63L304.625 235.63V245.1Z" fill="#E6E6E6"/>
</g>
<path d="M301.509 243.412H366.242V234.658H301.509V243.412Z" fill="#E6E6E6"/>
<path d="M450.343 234.669H366.242V243.423H450.343V234.669Z" fill="#F0F0F0"/>
<path d="M230.708 334.817H281.123V278.407H230.708V334.817Z" fill="#EBEBEB"/>
<path d="M347.379 278.398H281.123V334.807H347.379V278.398Z" fill="#F5F5F5"/>
<g style="mix-blend-mode:multiply" opacity="0.7">
<path d="M230.703 279.779H347.375V272.037H230.703V279.779Z" fill="#E6E6E6"/>
</g>
<path d="M228.163 278.398H281.123V271.239H228.163V278.398Z" fill="#EBEBEB"/>
<path d="M349.924 271.239H281.123V278.397H349.924V271.239Z" fill="#F5F5F5"/>
<path d="M421.686 43.6874H318.914V202.782H421.686V43.6874Z" fill="#E6E6E6"/>
<path d="M430.474 43.6874H320.404V202.782H430.474V43.6874Z" fill="#F5F5F5"/>
<path d="M423.465 190.244V56.2353C423.465 53.1854 420.994 50.713 417.946 50.713L332.946 50.713C329.898 50.713 327.428 53.1854 327.428 56.2353V190.244C327.428 193.294 329.898 195.766 332.946 195.766H417.946C420.994 195.766 423.465 193.294 423.465 190.244Z" fill="white"/>
<path d="M395.948 108.472L390.195 102.715L354.937 137.997L360.689 143.753L395.948 108.472Z" fill="#F5F5F5"/>
<path d="M381.446 93.962L375.693 88.2059L340.435 123.487L346.187 129.243L381.446 93.962Z" fill="#F5F5F5"/>
<path d="M410.454 122.99L404.701 117.234L369.442 152.516L375.195 158.272L410.454 122.99Z" fill="#F5F5F5"/>
<path d="M255.501 381C364.94 381 453.657 375.817 453.657 369.423C453.657 363.03 364.94 357.847 255.501 357.847C146.063 357.847 57.3457 363.03 57.3457 369.423C57.3457 375.817 146.063 381 255.501 381Z" fill="#F5F5F5"/>
<path d="M257.194 297.06L258.349 293.103H202.139L180.953 365.333H191.173L201.393 330.563H214.965L225.185 365.333H237.204L247.424 330.563H260.914L271.134 365.333H277.266L257.194 297.06ZM202.19 327.842L208.169 307.471L214.137 327.842H202.19ZM229.079 357.929L221.067 330.604H237.102L229.079 357.929ZM237.909 327.842H220.249L211.225 297.06L211.572 295.864H247.322L237.909 327.842ZM248.129 327.842L254.108 307.471L260.076 327.842H248.129Z" fill="#0077B6"/>
<path opacity="0.2" d="M257.194 297.06L258.349 293.103H202.139L180.953 365.333H191.173L201.393 330.563H214.965L225.185 365.333H237.204L247.424 330.563H260.914L271.134 365.333H277.266L257.194 297.06ZM202.19 327.842L208.169 307.471L214.137 327.842H202.19ZM229.079 357.929L221.067 330.604H237.102L229.079 357.929ZM237.909 327.842H220.249L211.225 297.06L211.572 295.864H247.322L237.909 327.842ZM248.129 327.842L254.108 307.471L260.076 327.842H248.129Z" fill="black"/>
<path d="M260.456 293.103H208.385L229.571 365.333H235.703L225.483 330.563H265.341L275.561 365.333H281.693L260.456 293.103ZM224.686 327.873L215.304 295.895H255.162L264.533 327.873H224.686Z" fill="#0077B6"/>
<path opacity="0.4" d="M260.456 293.103H208.385L229.571 365.333H235.703L225.483 330.563H265.341L275.561 365.333H281.693L260.456 293.103ZM224.737 327.842L215.355 295.864H255.213L264.585 327.842H224.737Z" fill="white"/>
<path d="M259.393 33.6655C259.393 33.6655 261.652 28.2965 273.957 29.5749C282.899 30.5055 288.336 40.1389 287.662 53.7709C286.987 67.4029 281.397 73.2832 281.397 73.2832L252.066 58.0251C252.066 58.0251 250.062 35.4551 259.393 33.6655Z" fill="#263238"/>
<path d="M285.824 48.0642V69.2025C290.423 50.1709 285.824 48.0642 285.824 48.0642Z" fill="#263238"/>
<path d="M284.331 39.5347L289.114 60.1207C288.052 37.0701 283.095 36.0065 284.331 39.5347Z" fill="#263238"/>
<path d="M283.562 91.2103C284.308 93.1942 285.095 95.3009 285.933 97.3462C286.771 99.3915 287.609 101.437 288.519 103.482C289.429 105.527 290.399 107.43 291.411 109.311C291.932 110.242 292.433 111.152 293.006 112.032C293.271 112.502 293.568 112.88 293.854 113.32L294.232 113.872C294.287 113.956 294.348 114.034 294.416 114.108C294.862 114.528 295.396 114.842 295.98 115.028C296.818 115.311 297.685 115.499 298.565 115.59C300.604 115.789 302.658 115.789 304.697 115.59C306.877 115.421 309.047 115.138 311.197 114.742C313.374 114.384 315.592 113.903 317.707 113.422L319.087 117.278C314.761 119.248 310.23 120.729 305.576 121.696C303.117 122.212 300.608 122.459 298.095 122.432C296.691 122.399 295.296 122.207 293.936 121.859C292.305 121.459 290.786 120.697 289.49 119.63C289.126 119.313 288.784 118.972 288.468 118.607C288.284 118.403 288.212 118.3 288.11 118.178L287.814 117.81C287.436 117.308 287.006 116.787 286.669 116.306L285.647 114.782L284.625 113.238C283.359 111.205 282.196 109.109 281.14 106.959C280.118 104.822 279.096 102.684 278.197 100.516C277.297 98.3484 276.459 96.1906 275.703 93.8692L283.562 91.2103Z" fill="#FFC3BD"/>
<path d="M317.178 118.056L322.288 119.375L323.157 112.441C323.157 112.441 317.975 112.38 315.502 114.66L317.178 118.056Z" fill="#FFC3BD"/>
<path d="M328.615 119.773L327.889 114.66L323.107 112.441L322.248 119.375L328.615 119.773Z" fill="#FFC3BD"/>
<path opacity="0.2" d="M328.614 119.773L327.888 114.66L325.712 113.648L323.105 119.426L328.614 119.773Z" fill="black"/>
<path d="M269.348 85.6268C269.665 88.2857 271.597 93.4092 273.17 97.2442C274.315 100.005 275.214 102.081 275.214 102.081L276.737 101.509L289.39 96.7329C288.746 89.8606 287.54 82.3543 280.304 78.5705C275.807 76.1877 268.786 80.8715 269.348 85.6268Z" fill="#0077B6"/>
<path opacity="0.3" d="M273.17 97.2431C274.315 100.004 275.214 102.08 275.214 102.08L276.737 101.508C276.655 98.8078 276.318 94.5331 274.969 92.5389C274.035 93.9576 273.421 95.5629 273.17 97.2431Z" fill="black"/>
<path d="M225.535 284.901L233.732 285.679L235.929 266.759L227.743 265.982L225.535 284.901Z" fill="#FFC3BD"/>
<path d="M158.074 262.719L164.676 267.7L177.809 253.833L171.207 248.862L158.074 262.719Z" fill="#FFC3BD"/>
<path d="M165.974 267.015L161.242 259.008C161.162 258.87 161.035 258.767 160.884 258.718C160.733 258.669 160.569 258.677 160.424 258.742L153.73 261.697C153.562 261.782 153.414 261.9 153.294 262.044C153.174 262.188 153.084 262.356 153.032 262.536C152.979 262.717 152.964 262.906 152.987 263.092C153.011 263.279 153.072 263.458 153.168 263.62C154.875 266.371 155.825 267.618 157.91 271.136C159.188 273.304 161.712 278.295 163.48 281.271C165.248 284.247 168.222 282.61 167.742 281.199C165.606 274.889 165.83 271.31 166.25 268.467C166.331 267.966 166.234 267.451 165.974 267.015Z" fill="#263238"/>
<path d="M234.773 283.274H225.013C224.84 283.276 224.673 283.336 224.538 283.443C224.403 283.55 224.308 283.7 224.267 283.868L222.356 291.589C222.311 291.775 222.309 291.969 222.35 292.156C222.391 292.343 222.475 292.519 222.594 292.669C222.713 292.819 222.865 292.939 223.038 293.022C223.211 293.104 223.401 293.145 223.592 293.143C227.026 293.143 228.702 292.898 232.954 292.898C235.591 292.898 242.418 293.153 246.066 293.153C249.715 293.153 250.277 289.543 248.795 289.216C242.131 287.754 238.268 285.739 236.173 283.806C235.791 283.458 235.29 283.268 234.773 283.274Z" fill="#263238"/>
<path opacity="0.2" d="M235.929 266.759L234.794 276.516H226.506L227.732 265.982L235.929 266.759Z" fill="black"/>
<path opacity="0.2" d="M171.206 248.862L177.797 253.843L171.032 260.981L164.43 256.001L171.206 248.862Z" fill="black"/>
<path d="M230.461 112.594L261.56 124.866C285.312 82.3745 282.297 79.869 282.297 79.869C282.297 79.869 277.391 76.5964 272.251 73.8046C271.474 73.3853 270.687 72.9762 269.91 72.5774C265.343 70.3891 260.626 68.5266 255.796 67.0039C255.081 66.7585 254.376 66.5335 253.66 66.3085C249.815 65.1534 245.904 64.2314 241.948 63.5474C241.212 69.6015 240.517 74.7148 239.802 79.1531C238.882 84.9413 237.962 89.5637 236.981 93.5521C235.323 100.065 233.143 106.432 230.461 112.594Z" fill="#0077B6"/>
<path opacity="0.3" d="M236.982 93.5222C240.212 89.3498 243.554 79.43 242.961 75.5848L239.803 79.1232C238.883 84.8808 237.964 89.5339 236.982 93.5222Z" fill="black"/>
<path d="M276.126 74.6537C274.828 67.7201 253.826 62.5761 253.826 62.5761L265.722 83.2337L267.603 83.9905C267.603 83.9905 276.964 79.2658 276.126 74.6537Z" fill="#0077B6"/>
<path opacity="0.3" d="M276.126 74.6537C274.828 67.7201 253.826 62.5761 253.826 62.5761L265.722 83.2337L267.603 83.9905C267.603 83.9905 276.964 79.2658 276.126 74.6537Z" fill="black"/>
<path d="M261.52 58.056C260.314 61.9932 258.454 65.8384 255.786 66.9736C255.786 66.9736 254.345 77.2001 263.768 86.9869C274.427 80.5237 269.9 72.547 269.9 72.547C265.27 69.3257 266.405 65.8895 269.828 60.766L266.354 57.6163C266.116 57.1515 265.744 56.7685 265.287 56.5166C264.83 56.2647 264.308 56.1554 263.788 56.2026C263.268 56.2499 262.775 56.4517 262.37 56.7819C261.966 57.1122 261.67 57.5559 261.52 58.056Z" fill="#FFC3BD"/>
<path d="M253.243 66.1554L253.825 62.5761C253.825 62.5761 258.68 65.1941 260.693 69.4279C262.706 73.6617 259.589 81.6384 259.589 81.6384L252.047 74.4287L253.243 66.1554Z" fill="#0077B6"/>
<path opacity="0.2" d="M266.366 57.606C266.14 57.1701 265.798 56.806 265.376 56.555C264.955 56.3039 264.472 56.1759 263.981 56.1855C263.491 56.1951 263.013 56.3418 262.602 56.6091C262.191 56.8765 261.862 57.2537 261.654 57.698C262.461 61.1468 264.314 64.2616 266.958 66.6156C267.545 64.5044 268.519 62.5208 269.83 60.766L266.366 57.606Z" fill="black"/>
<path d="M258.189 43.9739C258.414 52.2165 258.342 55.7037 262.277 60.1421C268.205 66.8302 278.087 64.969 280.285 56.8696C282.257 49.5883 281.552 37.3369 273.764 33.6246C272.066 32.7936 270.18 32.4217 268.294 32.5458C266.408 32.6699 264.587 33.2858 263.012 34.3321C261.438 35.3785 260.164 36.819 259.318 38.5104C258.472 40.2018 258.083 42.0854 258.189 43.9739Z" fill="#FFC3BD"/>
<path d="M258.975 36.7336C265.107 43.2172 276.778 39.2902 276.778 39.2902L282.91 43.0025L279.661 35.6189L272.507 31.4158C272.507 31.4158 255.838 33.4099 258.975 36.7336Z" fill="#263238"/>
<path d="M259.652 34.1776C261.852 36.2622 263.542 38.8277 264.588 41.6736C266.632 46.7869 258.456 50.7037 258.456 50.7037C258.456 50.7037 251.813 43.7189 259.652 34.1776Z" fill="#263238"/>
<path d="M256.112 51.459C256.431 53.0247 257.348 54.4042 258.667 55.3042C260.415 56.4802 261.887 55.069 261.907 53.0646C261.907 51.2647 261.038 48.4831 259.046 48.1149C257.053 47.7468 255.724 49.5364 256.112 51.459Z" fill="#FFC3BD"/>
<path d="M261.559 124.866C261.559 124.866 256.05 166.406 252.024 198.354C248.825 223.747 237.102 272.691 237.102 272.691L225.135 271.505C225.135 271.505 230.132 215.964 234.721 198.139C231.89 161.477 224.501 125.981 236.571 114.823L261.559 124.866Z" fill="#263238"/>
<path d="M223.229 268.59L239.008 269.071L238.15 274.46L223.382 274.235L223.229 268.59Z" fill="#0077B6"/>
<path opacity="0.3" d="M241.927 146.332L229.949 136.371C229.53 149.185 231.625 165.752 233.393 183.413C239.453 170.712 243.654 157.121 241.927 146.332Z" fill="black"/>
<path d="M254.736 122.289C254.736 122.289 232.579 168.503 223.708 199.326C212.63 223.695 175.408 258.639 175.408 258.639L166.926 251.062C166.926 251.062 196.676 201.146 206.784 192.678C211.628 156.977 215.42 122.698 230.453 112.615L254.736 122.289Z" fill="#263238"/>
<path d="M174.999 261.359L163.992 252.226L166.854 247.297L178.924 257.902L174.999 261.359Z" fill="#0077B6"/>
<path d="M230.665 110.569L228.242 112.829C228.059 113.003 228.242 113.33 228.59 113.463L261.202 126.339C261.488 126.451 261.764 126.41 261.846 126.236L263.154 123.537C263.236 123.352 263.052 123.087 262.745 122.964L231.257 110.528C231.164 110.482 231.06 110.462 230.956 110.469C230.851 110.476 230.751 110.511 230.665 110.569Z" fill="#0077B6"/>
<path opacity="0.2" d="M230.665 110.569L228.242 112.829C228.059 113.003 228.242 113.33 228.59 113.463L261.202 126.339C261.488 126.451 261.764 126.41 261.846 126.236L263.154 123.537C263.236 123.352 263.052 123.087 262.745 122.964L231.257 110.528C231.164 110.482 231.06 110.462 230.956 110.469C230.851 110.476 230.751 110.511 230.665 110.569Z" fill="white"/>
<path d="M233.608 115.795L232.759 115.458C232.596 115.396 232.504 115.253 232.545 115.151L234.272 111.664C234.323 111.561 234.497 111.531 234.66 111.592L235.509 111.93C235.672 111.991 235.774 112.134 235.723 112.236L234.037 115.734C233.955 115.836 233.771 115.867 233.608 115.795Z" fill="#263238"/>
<path d="M258.728 125.714L257.88 125.377C257.717 125.315 257.614 125.172 257.666 125.07L259.383 121.572C259.383 121.47 259.618 121.439 259.781 121.511L260.629 121.838C260.793 121.91 260.895 122.043 260.844 122.145L259.117 125.643C259.066 125.786 258.892 125.786 258.728 125.714Z" fill="#263238"/>
<path d="M246.174 120.755L245.326 120.418C245.162 120.356 245.06 120.213 245.111 120.111L246.828 116.613C246.879 116.511 247.063 116.48 247.226 116.552L248.075 116.889C248.238 116.951 248.34 117.084 248.289 117.196L246.572 120.673C246.521 120.786 246.307 120.816 246.174 120.755Z" fill="#263238"/>
<path d="M269.992 46.9187C269.992 47.5933 270.309 48.1554 270.738 48.1759C271.168 48.1963 271.535 47.6751 271.556 47.0107C271.576 46.3464 271.239 45.774 270.81 45.7536C270.381 45.7331 270.023 46.2544 269.992 46.9187Z" fill="#263238"/>
<path d="M277.426 47.3371C277.426 48.0015 277.743 48.5636 278.172 48.5943C278.601 48.6249 278.959 48.0935 278.989 47.4189C279.02 46.7443 278.673 46.1924 278.243 46.172C277.814 46.1515 277.456 46.6728 277.426 47.3371Z" fill="#263238"/>
<path d="M278.053 46.193L279.647 45.8254C279.647 45.8254 278.789 47.0403 278.053 46.193Z" fill="#263238"/>
<path d="M276.583 48.2791C277.12 49.8366 277.862 51.3155 278.79 52.6765C278.445 52.9017 278.054 53.0471 277.646 53.1019C277.237 53.1568 276.822 53.1197 276.43 52.9935L276.583 48.2791Z" fill="#ED847E"/>
<path d="M273.315 55.5699C273.348 55.551 273.377 55.5245 273.398 55.4925C273.419 55.4606 273.433 55.4241 273.438 55.3859C273.435 55.3342 273.414 55.2849 273.379 55.2474C273.343 55.2098 273.295 55.1864 273.243 55.1815C272.417 55.1478 271.609 54.9214 270.885 54.5203C270.161 54.1193 269.541 53.5547 269.074 52.8716C269.046 52.8288 269.004 52.7977 268.955 52.7844C268.906 52.7712 268.853 52.7768 268.808 52.8001C268.764 52.8293 268.733 52.8736 268.72 52.9245C268.707 52.9753 268.713 53.0293 268.736 53.076C269.237 53.8173 269.904 54.4303 270.686 54.8654C271.467 55.3004 272.34 55.5453 273.233 55.5801L273.315 55.5699Z" fill="#263238"/>
<path d="M269.351 44.3179C269.418 44.2962 269.475 44.2531 269.515 44.1954C269.81 43.8141 270.192 43.5092 270.63 43.3067C271.067 43.1041 271.547 43.0097 272.029 43.0315C272.131 43.0402 272.233 43.009 272.313 42.9443C272.393 42.8796 272.445 42.7864 272.458 42.6844C272.467 42.5808 272.436 42.4777 272.372 42.3961C272.307 42.3145 272.214 42.2606 272.111 42.2454C271.499 42.2052 270.887 42.3164 270.329 42.5694C269.771 42.8223 269.284 43.209 268.912 43.6951C268.848 43.7769 268.819 43.8803 268.831 43.9832C268.842 44.0861 268.893 44.1805 268.973 44.2464C269.025 44.2893 269.087 44.3183 269.153 44.3308C269.219 44.3433 269.287 44.3388 269.351 44.3179Z" fill="#263238"/>
<path d="M167.25 271.289L167.372 271.34C167.552 271.386 167.741 271.385 167.92 271.337C168.099 271.289 168.262 271.195 168.394 271.064C168.491 270.993 168.566 270.898 168.613 270.789C168.66 270.679 168.676 270.558 168.66 270.44C168.527 269.418 165.891 268.078 165.594 267.935C165.564 267.913 165.529 267.901 165.492 267.901C165.455 267.901 165.419 267.913 165.39 267.935C165.361 267.959 165.339 267.991 165.329 268.028C165.318 268.064 165.318 268.103 165.328 268.139C165.655 269.182 166.32 270.89 167.25 271.289ZM165.86 268.497C166.882 269.06 168.221 269.939 168.282 270.491C168.291 270.544 168.284 270.599 168.262 270.648C168.24 270.697 168.204 270.738 168.159 270.767C168.071 270.855 167.962 270.919 167.842 270.953C167.722 270.987 167.596 270.99 167.475 270.962C166.943 270.798 166.35 269.888 165.86 268.497Z" fill="#0077B6"/>
<path d="M165.629 268.373C166.528 268.772 168.521 269.027 169.154 268.425C169.268 268.318 169.343 268.176 169.365 268.022C169.387 267.868 169.356 267.711 169.277 267.577C169.219 267.439 169.131 267.315 169.02 267.215C168.909 267.114 168.777 267.039 168.633 266.995C167.509 266.648 165.506 267.883 165.424 267.945C165.395 267.963 165.371 267.988 165.355 268.019C165.338 268.05 165.331 268.084 165.332 268.118C165.334 268.152 165.344 268.185 165.362 268.214C165.38 268.242 165.405 268.266 165.434 268.282L165.629 268.373ZM168.603 267.404C168.75 267.472 168.866 267.592 168.93 267.741C169.032 267.975 168.93 268.077 168.93 268.139C168.511 268.537 166.886 268.435 165.986 268.088C166.746 267.588 167.643 267.338 168.551 267.373L168.603 267.404Z" fill="#0077B6"/>
<path d="M239.151 284.837C239.814 284.885 240.475 284.724 241.041 284.378C241.187 284.268 241.305 284.126 241.386 283.963C241.468 283.8 241.511 283.621 241.512 283.439C241.52 283.335 241.501 283.232 241.456 283.138C241.411 283.045 241.342 282.966 241.256 282.908C240.346 282.316 237.066 283.816 236.422 284.133C236.385 284.149 236.355 284.176 236.336 284.212C236.318 284.247 236.312 284.288 236.32 284.327C236.325 284.368 236.342 284.406 236.369 284.437C236.397 284.468 236.433 284.49 236.473 284.5C237.352 284.702 238.249 284.815 239.151 284.837ZM240.653 283.153C240.788 283.14 240.923 283.168 241.041 283.234C241.071 283.255 241.094 283.283 241.108 283.315C241.122 283.347 241.128 283.383 241.123 283.418C241.124 283.545 241.095 283.67 241.038 283.784C240.981 283.898 240.898 283.996 240.796 284.072C240.234 284.5 238.895 284.562 237.137 284.235C238.246 283.694 239.432 283.329 240.653 283.153Z" fill="#0077B6"/>
<path d="M236.511 284.502H236.582C237.676 284.042 239.843 282.262 239.648 281.342C239.648 281.137 239.475 280.892 238.974 280.831C237.022 280.595 236.306 284.124 236.276 284.277C236.266 284.311 236.268 284.348 236.281 284.381C236.294 284.414 236.317 284.442 236.347 284.461C236.369 284.48 236.396 284.494 236.424 284.501C236.453 284.508 236.482 284.509 236.511 284.502ZM238.841 281.229H238.974C239.178 281.229 239.291 281.311 239.311 281.403C239.393 281.945 237.901 283.346 236.797 283.96C237.032 283.091 237.676 281.229 238.841 281.229Z" fill="#0077B6"/>
<path d="M270.627 45.7837L272.221 45.4059C272.221 45.4059 271.363 46.6106 270.627 45.7837Z" fill="#263238"/>
<path d="M241.957 76.9128C238.656 79.9808 235.324 83.1612 232.136 86.3519C230.542 87.9575 228.998 89.5937 227.527 91.2402C226.087 92.7986 224.759 94.4559 223.551 96.2001C223.135 96.7905 222.792 97.4292 222.529 98.1022C222.529 98.1022 222.529 97.9693 222.529 98.1022C222.519 98.2281 222.519 98.3547 222.529 98.4806C222.557 98.7613 222.612 99.0387 222.693 99.309C223.373 100.858 224.452 102.199 225.82 103.195C229.273 105.786 233.071 107.882 237.103 109.423L236.081 113.401C234.803 113.217 233.659 112.972 232.463 112.685C231.268 112.404 230.088 112.063 228.927 111.663C226.509 110.88 224.191 109.82 222.018 108.503C220.832 107.779 219.729 106.929 218.727 105.966C217.588 104.869 216.653 103.578 215.968 102.152C215.591 101.352 215.32 100.506 215.16 99.6362C215.079 99.1903 215.027 98.7392 215.007 98.2863C214.987 97.9901 214.987 97.6928 215.007 97.3966C215.007 97.1103 215.079 96.7932 215.13 96.5478C215.311 95.6828 215.592 94.842 215.968 94.0423C216.285 93.3469 216.622 92.7333 216.99 92.1401C218.317 89.9894 219.799 87.9387 221.425 86.0042C222.979 84.1328 224.593 82.3636 226.229 80.6353C229.499 77.1582 232.861 73.9164 236.449 70.736L241.957 76.9128Z" fill="#FFC3BD"/>
<path d="M233.873 112.614L237.961 117.972L242.049 112.338C242.049 112.338 238.217 108.861 234.895 108.932L233.873 112.614Z" fill="#FFC3BD"/>
<path d="M241.302 121.471L244.143 117.166L242.028 112.339L237.93 117.974L241.302 121.471Z" fill="#FFC3BD"/>
<path d="M241.951 63.5167C237.863 63.0463 229.35 72.7206 229.35 72.7206L236.984 86.2094C236.984 86.2094 248.297 78.202 247.878 73.0785C247.511 68.5788 247.153 64.1098 241.951 63.5167Z" fill="#0077B6"/>
<path d="M336.034 190.538L333.58 194.788L334.465 195.3L336.919 191.049L336.034 190.538Z" fill="#0077B6"/>
<path d="M347.443 170.816L338.557 186.205L339.442 186.717L348.328 171.327L347.443 170.816Z" fill="#0077B6"/>
<path d="M376.107 72.9669L305.027 105.314H332.549L238.393 268.386H288.154L382.311 105.314H409.833L376.107 72.9669Z" fill="#0077B6"/>
<path d="M288.151 268.386H238.39L204.541 209.747H254.292L288.151 268.386Z" fill="#0077B6"/>
<path opacity="0.3" d="M288.151 268.386H238.39L204.541 209.747H254.292L288.151 268.386Z" fill="black"/>
<path d="M254.303 209.747H204.532L110.375 372.83H160.136L254.303 209.747Z" fill="#0077B6"/>
</svg>
