<svg width="151" height="150" viewBox="0 0 151 150" fill="none" xmlns="http://www.w3.org/2000/svg">
<path d="M75.1719 150C64.5469 150 54.6719 148.094 45.5469 144.281C36.4219 140.469 28.4844 135.188 21.7344 128.438C14.9844 121.688 9.70312 113.75 5.89062 104.625C2.07812 95.5 0.171875 85.625 0.171875 75C0.171875 64.5 2.07812 54.6875 5.89062 45.5625C9.70312 36.4375 14.9844 28.5 21.7344 21.75C28.4844 15 36.4219 9.6875 45.5469 5.8125C54.6719 1.9375 64.5469 0 75.1719 0C84.5469 0 93.2969 1.5 101.422 4.5C109.547 7.5 116.859 11.625 123.359 16.875L115.297 24.9375C109.797 20.5625 103.672 17.1875 96.9219 14.8125C90.1719 12.4375 82.9219 11.25 75.1719 11.25C57.0469 11.25 41.8906 17.3438 29.7031 29.5312C17.5156 41.7188 11.4219 56.875 11.4219 75C11.4219 93.125 17.5156 108.281 29.7031 120.469C41.8906 132.656 57.0469 138.75 75.1719 138.75C93.2969 138.75 108.453 132.656 120.641 120.469C132.828 108.281 138.922 93.125 138.922 75C138.922 71.25 138.641 67.5938 138.078 64.0312C137.516 60.4688 136.672 57 135.547 53.625L144.172 45C146.172 49.625 147.672 54.4375 148.672 59.4375C149.672 64.4375 150.172 69.625 150.172 75C150.172 85.625 148.234 95.5 144.359 104.625C140.484 113.75 135.172 121.688 128.422 128.438C121.672 135.188 113.734 140.469 104.609 144.281C95.4844 148.094 85.6719 150 75.1719 150ZM64.1094 109.125L33.1719 78L41.6094 69.5625L64.1094 92.0625L141.734 14.4375L150.359 22.875L64.1094 109.125Z" fill="#04A143"/>
</svg>
