<svg width="26" height="30" viewBox="0 0 26 30" fill="none" xmlns="http://www.w3.org/2000/svg">
<path d="M7.32992 28.9825L7.85747 25.68L6.68235 25.6531H1.07104L4.9706 1.28401C4.98272 1.21044 5.02205 1.14184 5.07955 1.09313C5.13705 1.04442 5.21067 1.01758 5.28734 1.01758H14.7488C17.8898 1.01758 20.0575 1.66178 21.1891 2.93327C21.7197 3.52975 22.0577 4.15308 22.2211 4.83904C22.3925 5.55879 22.3957 6.4187 22.2281 7.46752L22.216 7.54408V8.2161L22.7466 8.51235C23.1935 8.74597 23.5486 9.01339 23.8208 9.3196C24.2749 9.82958 24.5683 10.4778 24.6924 11.2462C24.8205 12.0366 24.7782 12.977 24.5683 14.0417C24.3263 15.2665 23.9348 16.3332 23.4063 17.2061C22.9201 18.0103 22.3008 18.6774 21.5654 19.1943C20.8634 19.6854 20.0292 20.0582 19.0861 20.2968C18.1723 20.5314 17.1303 20.6497 15.9875 20.6497H15.2511C14.7246 20.6497 14.2132 20.8367 13.8117 21.1717C13.4093 21.5136 13.143 21.9808 13.0613 22.4919L13.0058 22.7892L12.0738 28.6098L12.0314 28.8236C12.0203 28.8911 12.0011 28.925 11.9729 28.9477C11.9477 28.9686 11.9114 28.9825 11.8761 28.9825H7.32992Z" fill="#253B80"/>
<path d="M23.2475 7.62158C23.2192 7.79954 23.187 7.98146 23.1507 8.16835C21.9029 14.4821 17.6342 16.6632 12.1823 16.6632H9.40637C8.73963 16.6632 8.17779 17.1404 8.0739 17.7886L6.65265 26.6723L6.2502 29.1904C6.1826 29.6158 6.51546 29.9996 6.95123 29.9996H11.8746C12.4576 29.9996 12.9529 29.5821 13.0447 29.0154L13.0931 28.7687L14.0201 22.971L14.0796 22.6529C14.1704 22.0844 14.6666 21.6666 15.2497 21.6666H15.986C20.7561 21.6666 24.4902 19.758 25.5816 14.2346C26.0375 11.9272 25.8014 10.0005 24.5951 8.64554C24.23 8.23696 23.777 7.89796 23.2475 7.62158Z" fill="#179BD7"/>
<path d="M21.9426 7.10888C21.7519 7.05421 21.5553 7.0045 21.3535 6.95977C21.1507 6.91602 20.943 6.87725 20.7292 6.84346C19.9807 6.72415 19.1607 6.66748 18.2821 6.66748H10.8663C10.6837 6.66748 10.5102 6.70825 10.3548 6.78181C10.0129 6.94385 9.75872 7.26298 9.69719 7.65367L8.1196 17.5016L8.07422 17.7889C8.17811 17.1407 8.73994 16.6635 9.40669 16.6635H12.1826C17.6345 16.6635 21.9033 14.4814 23.151 8.16863C23.1883 7.98173 23.2195 7.79981 23.2479 7.62186C22.9321 7.45683 22.5903 7.31567 22.222 7.19538C22.1311 7.16554 22.0375 7.13673 21.9426 7.10888Z" fill="#222D65"/>
<path d="M9.69747 7.65383C9.759 7.26314 10.0132 6.94402 10.3551 6.78298C10.5115 6.70942 10.684 6.66864 10.8665 6.66864H18.2824C19.1609 6.66864 19.981 6.72531 20.7294 6.84462C20.9433 6.87842 21.1511 6.91719 21.3538 6.96094C21.5555 7.00567 21.7523 7.05537 21.9429 7.11004C22.0376 7.1379 22.1315 7.16671 22.2232 7.19554C22.5915 7.31583 22.9335 7.458 23.2491 7.62202C23.6203 5.28879 23.2461 3.70017 21.966 2.26165C20.5549 0.678 18.008 0 14.749 0H5.28751C4.62176 0 4.05389 0.477185 3.95101 1.12635L0.0100756 25.746C-0.067593 26.2331 0.313689 26.6727 0.811978 26.6727H6.65325L8.11988 17.5017L9.69747 7.65383Z" fill="#253B80"/>
</svg>
