<svg width="129" height="129" viewBox="0 0 129 129" fill="none" xmlns="http://www.w3.org/2000/svg">
<path d="M121.381 121.085C121.381 121.123 95.7954 121.152 64.242 121.152C32.6886 121.152 7.09497 121.123 7.09497 121.085C7.09497 121.046 32.6757 121.018 64.242 121.018C95.8083 121.018 121.381 121.049 121.381 121.085Z" fill="black"/>
<path d="M47.0127 7.77588L47.6528 8.94547L48.8238 9.5869L47.6528 10.227L47.0127 11.3966L46.3727 10.227L45.2017 9.5869L46.3727 8.94547L47.0127 7.77588Z" fill="#FFDAA5"/>
<path d="M97.4904 67.3276L97.9708 68.2065L98.8484 68.6856L97.9708 69.1661L97.4904 70.0448L97.0099 69.1661L96.1325 68.6856L97.0099 68.2065L97.4904 67.3276Z" fill="#FFDAA5"/>
<path d="M100.058 58.4692L100.275 58.865L100.67 59.082L100.275 59.299L100.058 59.6948L99.842 59.299L99.4448 59.082L99.842 58.865L100.058 58.4692Z" fill="#FFDAA5"/>
<path d="M38.3672 7.54004L38.5842 7.93718L38.9799 8.15281L38.5842 8.36981L38.3672 8.76558L38.1515 8.36981L37.7544 8.15281L38.1515 7.93718L38.3672 7.54004Z" fill="#FFDAA5"/>
<path d="M63.3545 98.7632C63.018 98.8347 62.6769 98.8836 62.3337 98.9092C61.9925 98.9588 61.6482 98.9841 61.3033 98.9856C61.6404 98.9141 61.9818 98.8653 62.3255 98.8397C62.6664 98.791 63.0102 98.7655 63.3545 98.7632Z" fill="#FFDAA5"/>
<path d="M104.91 13.2471L105.065 13.5296L105.346 13.6838L105.065 13.838L104.91 14.1191L104.756 13.838L104.475 13.6838L104.756 13.5296L104.91 13.2471Z" fill="#FFDAA5"/>
<path d="M111.001 26.4487L111.156 26.7312L111.437 26.8854L111.156 27.0397L111.001 27.3208L110.847 27.0397L110.565 26.8854L110.847 26.7312L111.001 26.4487Z" fill="#FFDAA5"/>
<path d="M13.3908 61.6709L13.545 61.9534L13.8275 62.1076L13.545 62.2605L13.3908 62.543L13.2366 62.2605L12.9554 62.1076L13.2366 61.9534L13.3908 61.6709Z" fill="#FFDAA5"/>
<path d="M96.9209 17.0366L97.2769 17.6876L97.928 18.0438L97.2769 18.3986L96.9209 19.0496L96.5659 18.3986L95.915 18.0438L96.5659 17.6876L96.9209 17.0366Z" fill="#FFDAA5"/>
<path d="M18.8494 53.8096L19.2043 54.4578L19.8539 54.8127L19.2043 55.1689L18.8494 55.8171L18.4946 55.1689L17.845 54.8127L18.4946 54.4578L18.8494 53.8096Z" fill="#FFDAA5"/>
<path d="M112.658 83.083L113.012 83.7328L113.661 84.0875L113.012 84.4424L112.658 85.0922L112.303 84.4424L111.653 84.0875L112.303 83.7328L112.658 83.083Z" fill="#FFDAA5"/>
<path d="M35.3937 32.7324C30.5121 32.7324 26.5546 28.7749 26.5546 23.8933C26.5546 19.0117 30.5121 15.0542 35.3937 15.0542C40.2753 15.0542 44.2328 19.0117 44.2328 23.8933C44.2328 28.7749 40.2753 32.7324 35.3937 32.7324Z" fill="#EBEBEB"/>
<path d="M31.3844 21.9248H33.2136V27.8356H31.3844V21.9248Z" fill="black"/>
<path d="M32.2899 21.1507C32.8926 21.1564 33.3857 20.6724 33.3913 20.0697C33.397 19.467 32.9135 18.9737 32.3106 18.9683C31.7079 18.9624 31.2146 19.4464 31.2089 20.0491C31.2087 20.0527 31.2089 20.056 31.2089 20.0594C31.2076 20.6587 31.6906 21.1464 32.2899 21.1507Z" fill="black"/>
<path d="M36.1393 24.732C36.1393 23.9012 36.5211 23.4058 37.2539 23.4058C37.9247 23.4058 38.2497 23.8806 38.2497 24.732V27.828H40.0686V24.0921C40.0686 22.508 39.1734 21.7443 37.9195 21.7443C37.1961 21.735 36.5209 22.105 36.1393 22.7196V21.9249H34.3823V27.8331H36.1393V24.732Z" fill="black"/>
<path d="M17.8355 76.5639C18.8084 76.1181 19.423 75.1367 19.399 74.0665C19.399 72.5882 18.2509 71.4014 16.8655 71.4117C15.48 71.422 14.368 72.632 14.3809 74.1104C14.3734 75.1898 15.0169 76.1677 16.0115 76.5872C12.157 77.2193 12.384 81.4143 12.384 81.4143L21.5146 81.3369C21.5146 81.3369 21.672 77.0928 17.8355 76.5639Z" fill="#6C6B6B"/>
<path d="M105.429 104.216C105.279 103.446 104.533 102.942 103.762 103.092C103.164 103.209 102.706 103.694 102.625 104.299C102.515 103.521 101.797 102.98 101.019 103.089C100.416 103.174 99.9337 103.633 99.8204 104.232C99.7528 104.721 99.8767 105.217 100.166 105.617C100.453 106.012 100.789 106.367 101.167 106.675C101.683 107.132 102.15 107.557 102.661 108.012C103.177 107.552 103.597 107.122 104.103 106.662C104.479 106.351 104.813 105.992 105.096 105.594C105.379 105.194 105.498 104.701 105.429 104.216Z" fill="#EBEBEB"/>
<path d="M111.183 49.1878L112.16 48.9943L113.708 45.5938L113.321 43.6408C113.321 43.6408 114.815 43.2486 115.145 45.8415C115.476 48.4344 115.538 47.7456 115.538 47.7456C115.538 47.7456 118.749 47.1212 119.072 47.3457C119.307 47.5108 120.026 50.6842 120.403 52.4076C120.618 53.2577 120.225 54.1445 119.451 54.5568C119.344 54.6097 119.231 54.6478 119.113 54.6703C118.314 54.8302 114.092 54.9902 114.092 54.9902L112.403 55.3256L111.183 49.1878Z" fill="#6C6B6B"/>
<path d="M108.275 49.2059L110.202 55.7797L111.879 55.4469L110.579 48.8911L108.275 49.2059Z" fill="#6C6B6B"/>
<path d="M103.698 47.6399C98.4912 50.1707 92.219 48.003 89.6859 42.7973C87.1552 37.5906 89.3229 31.3181 94.5286 28.7853C99.735 26.253 106.008 28.421 108.54 33.6272C108.541 33.6275 108.541 33.6277 108.541 33.628C111.073 38.8342 108.905 45.1074 103.699 47.6397C103.699 47.6397 103.698 47.6399 103.698 47.6399Z" fill="#1073BB"/>
<path d="M96.5229 40.5552C96.6654 40.5519 96.7781 40.4339 96.775 40.2915C96.7745 40.2735 96.7722 40.2557 96.768 40.2381C96.7422 40.1117 96.6726 39.7918 96.6465 39.6602C96.6107 39.477 96.5668 39.428 96.3885 39.3454C95.9264 39.1329 95.5591 38.7569 95.3565 38.29C94.5673 36.6646 95.0756 34.6186 97.026 33.6718C98.7521 32.8307 100.215 33.4138 100.896 34.8328C101.796 36.6878 101.737 38.6514 100.519 39.2448C99.9838 39.5395 99.3109 39.3442 99.016 38.8085C98.9626 38.7118 98.9241 38.6076 98.9017 38.4992C98.7002 37.591 98.6437 36.5307 98.3599 35.9424C98.1019 35.4264 97.6065 35.114 97.0232 35.3978C96.3346 35.7332 96.1282 36.7138 96.5926 37.6659C96.7582 38.018 96.9964 38.331 97.2915 38.5843C97.2915 38.5843 98.04 41.9071 98.169 42.4902C98.427 43.6486 99.2577 44.8122 99.3377 44.9438C99.371 44.9864 99.4327 44.9944 99.4752 44.9611C99.4933 44.9469 99.5057 44.9273 99.5106 44.9053C99.5338 44.7918 99.8612 43.3831 99.6473 42.2376C99.588 41.9125 99.2397 40.2484 99.2397 40.2484C99.6705 40.5658 100.506 40.6251 101.2 40.2871C103.264 39.2809 103.755 36.7138 102.527 34.1906C101.6 32.284 99.1184 31.293 96.6648 32.4875C93.6075 33.9736 93.1328 36.9125 94.0203 38.7391C94.557 39.846 95.4471 40.6352 96.5229 40.5552Z" fill="white"/>
<path d="M111.585 76.8218C107.857 75.4002 105.988 71.226 107.409 67.4979C107.41 67.4945 107.412 67.4909 107.413 67.4873C108.834 63.7592 113.008 61.8887 116.736 63.3095C116.739 63.3106 116.742 63.3119 116.745 63.3129C120.473 64.7345 122.342 68.9089 120.921 72.6367C120.92 72.6404 120.918 72.644 120.917 72.6473C119.496 76.3757 115.322 78.2462 111.594 76.8254C111.591 76.8241 111.588 76.8231 111.585 76.8218Z" fill="#1073BB"/>
<path d="M117.942 71.2958C118.634 69.26 117.545 67.0492 115.509 66.3569C113.604 65.7091 111.519 66.6198 110.7 68.4578C110.677 68.5094 110.656 68.5636 110.636 68.6152C110.383 69.2726 110.317 69.9865 110.445 70.6792L109.049 72.364L111.309 72.493C112.697 74.1346 115.154 74.3397 116.796 72.9517C117.29 72.5329 117.673 71.9976 117.909 71.3936C117.922 71.3616 117.933 71.3289 117.942 71.2958ZM113.112 73.0322C112.514 72.8051 111.996 72.4068 111.624 71.8869L110.305 71.8118L111.118 70.8314C110.936 70.1707 110.969 69.4695 111.213 68.8294C111.252 68.7313 111.296 68.6333 111.342 68.5407C112.157 66.9264 114.127 66.2785 115.741 67.0933C117.146 67.8028 117.848 69.4119 117.411 70.9243C117.387 71.0066 117.362 71.0869 117.331 71.1668C116.68 72.8456 114.792 73.6805 113.112 73.0322Z" fill="white"/>
<path d="M115.661 71.3629C115.586 71.2855 115.233 70.9039 115.161 70.8469C115.088 70.7901 115.037 70.7488 114.944 70.8162C114.851 70.8832 114.601 71.0146 114.529 71.0535C114.456 71.092 114.4 71.0791 114.327 71.0019C114.104 70.7973 113.918 70.5556 113.778 70.287C113.653 70.0349 113.566 69.7653 113.52 69.4872C113.504 69.3791 113.566 69.3476 113.628 69.3221C113.69 69.296 113.757 69.2522 113.822 69.2186L113.871 69.1877C113.904 69.1616 113.936 69.1332 113.966 69.1025C114.011 69.0636 114.032 69.0037 114.02 68.9457C114.02 68.8941 114.002 68.3881 113.994 68.1843C113.986 67.9805 113.902 67.9805 113.85 67.9598C113.798 67.9389 113.742 67.9082 113.682 67.8876C113.59 67.8543 113.488 67.861 113.401 67.9059C113.125 68.0212 112.91 68.2465 112.807 68.5274C112.77 68.6294 112.747 68.7362 112.738 68.8445C112.723 69.0927 112.752 69.3417 112.823 69.5801C112.846 69.6549 113.066 70.7955 113.834 71.4973C114.603 72.1988 114.652 72.0801 114.823 72.1268C115.096 72.18 115.379 72.11 115.597 71.9359C115.707 71.8267 115.781 71.6877 115.811 71.536C115.782 71.4867 115.733 71.4405 115.661 71.3629Z" fill="white"/>
<path d="M18.0613 43.6158C15.0163 43.6158 12.5478 41.1472 12.5478 38.1023C12.5478 35.0574 15.0163 32.5889 18.0613 32.5889C21.1062 32.5889 23.5747 35.0574 23.5747 38.1023C23.5747 41.1472 21.1062 43.6158 18.0613 43.6158Z" fill="#1073BB"/>
<path d="M15.1252 39.9421C16.7227 40.9614 18.8443 40.4924 19.8636 38.8946C20.2429 38.2999 20.4299 37.6025 20.3987 36.8977C20.6317 36.7284 20.8334 36.52 20.9947 36.2813C20.7738 36.3783 20.5401 36.4423 20.3007 36.472C20.553 36.3247 20.7434 36.0909 20.8373 35.8141C20.5984 35.956 20.3365 36.0548 20.0633 36.1056C19.6134 35.6134 18.8497 35.5793 18.3574 36.0293C18.0318 36.327 17.8943 36.779 17.9993 37.2075C17.0297 37.1577 16.127 36.699 15.5148 35.9457C15.1964 36.497 15.36 37.2008 15.8889 37.5556C15.6972 37.5507 15.5093 37.4993 15.3419 37.4059C15.3352 37.9854 15.7413 38.4882 16.3094 38.6033C16.1319 38.6518 15.9456 38.6585 15.765 38.6237C15.9234 39.1136 16.3749 39.4493 16.8899 39.4596C16.3873 39.8451 15.7539 40.0179 15.1252 39.9421Z" fill="white"/>
<path d="M24.3487 104.905C19.2501 106.116 14.1345 102.967 12.9193 97.8695C11.7034 92.7691 14.8522 87.6483 19.9529 86.4321C19.9563 86.4316 19.9591 86.4306 19.9625 86.4298C25.0634 85.2141 30.1839 88.3635 31.3996 93.4642C31.3996 93.4647 31.3996 93.4652 31.3996 93.4655C32.6148 98.5666 29.4649 103.686 24.3639 104.901C24.359 104.903 24.3539 104.904 24.3487 104.905Z" fill="black"/>
<path d="M21.1673 91.5177C22.5192 91.1952 22.6818 91.1617 23.2313 91.0588C23.5528 90.9865 23.8848 90.9698 24.212 91.0097C24.4514 91.0386 24.6815 91.1204 24.8854 91.2494C25.091 91.3746 25.2669 91.5425 25.4014 91.7422C25.5838 92.017 25.7182 92.3206 25.7987 92.6403C25.9509 93.1692 25.9948 93.3292 26.3147 94.6811C26.6346 96.0327 26.6681 96.195 26.7713 96.7448C26.8449 97.066 26.8616 97.3978 26.8204 97.7252C26.794 97.9654 26.7117 98.1958 26.5804 98.3983C26.4571 98.6047 26.2896 98.781 26.0902 98.9143C25.8147 99.097 25.5102 99.2317 25.1898 99.3119C24.6738 99.4641 24.5035 99.5083 23.1516 99.8279C21.7997 100.148 21.6371 100.184 21.0876 100.287C20.7654 100.361 20.4323 100.377 20.1044 100.336C19.8647 100.308 19.6345 100.226 19.4312 100.096C19.2274 99.9672 19.0564 99.7939 18.9307 99.5882C18.7465 99.3142 18.6111 99.0101 18.5306 98.6899C18.3809 98.161 18.3371 98.0039 18.0146 96.6519C17.6921 95.3 17.6585 95.1377 17.5553 94.5882C17.4844 94.2654 17.4679 93.9334 17.5063 93.605C17.5703 93.1225 17.8368 92.6901 18.239 92.4158C18.5133 92.2321 18.8167 92.097 19.1369 92.0159C19.6529 91.8663 19.8257 91.8224 21.1776 91.4999L21.1673 91.5177ZM20.9609 90.5866C19.5858 90.9143 19.4132 90.9605 18.8791 91.1155C18.4612 91.2192 18.0641 91.3936 17.7052 91.6315C17.0894 92.0572 16.6802 92.7216 16.5775 93.4631C16.5233 93.8932 16.5424 94.3297 16.6343 94.7531C16.74 95.2977 16.7736 95.4729 17.1012 96.8483C17.4289 98.2234 17.4753 98.3963 17.6172 98.9278C17.7204 99.3457 17.8951 99.7428 18.1332 100.102C18.3432 100.417 18.6209 100.683 18.9459 100.878C19.2589 101.075 19.6111 101.201 19.9779 101.247C20.408 101.302 20.8443 101.282 21.2679 101.19C21.8123 101.087 21.9878 101.051 23.3629 100.723C24.738 100.396 24.9112 100.349 25.4426 100.207C25.8598 100.102 26.2566 99.9273 26.6165 99.6912C26.9241 99.4835 27.1831 99.2118 27.3751 98.894C27.5709 98.5805 27.6973 98.2286 27.7463 97.862C27.7997 97.4319 27.7799 96.9956 27.6872 96.572C27.584 96.0253 27.5479 95.8521 27.2203 94.4773C26.8926 93.1021 26.8462 92.9293 26.7043 92.3952C26.5982 91.978 26.4238 91.5812 26.1883 91.2213C25.9806 90.9143 25.7084 90.6565 25.391 90.4651C25.0786 90.267 24.7262 90.14 24.359 90.0938C23.9289 90.0391 23.4927 90.0585 23.069 90.1506C22.5221 90.2564 22.349 90.2899 20.9738 90.6176" fill="white"/>
<path d="M21.5368 93.068C20.1007 93.4101 19.214 94.8516 19.5561 96.2876C19.8982 97.7236 21.3397 98.6104 22.7757 98.268C24.2112 97.9259 25.0979 96.485 24.7564 95.0495C24.4132 93.6137 22.9728 92.7272 21.5368 93.068ZM22.5688 97.3586C21.6353 97.5789 20.7003 97.0012 20.4797 96.0678C20.2594 95.1346 20.8373 94.1991 21.7708 93.9788C22.7027 93.7587 23.6369 94.3346 23.8588 95.2662C24.0809 96.1989 23.5051 97.1357 22.5721 97.3578C22.5711 97.3581 22.5698 97.3583 22.5688 97.3586Z" fill="white"/>
<path d="M24.8234 92.1781C24.9023 92.5138 24.6941 92.8502 24.3585 92.9289C24.0226 93.0078 23.6867 92.7994 23.608 92.4637C23.5293 92.1293 23.7359 91.7939 24.07 91.7137C24.4036 91.6322 24.7401 91.8368 24.8216 92.1704C24.8224 92.1727 24.8229 92.1753 24.8234 92.1781Z" fill="white"/>
<path d="M99.7969 96.6131C97.3519 96.6146 95.3686 94.6335 95.3671 92.1887V92.1858C95.3671 89.7408 97.3495 87.7588 99.7943 87.7588H99.7969C102.242 87.7544 104.228 89.733 104.232 92.1783V92.1858C104.232 94.6309 102.25 96.6131 99.8047 96.6131H99.7969Z" fill="black"/>
<path d="M99.121 94.8614H100.199V92.1704H100.95L101.033 91.2674H100.199V90.7514C100.199 90.5399 100.243 90.4547 100.457 90.4547H101.043V89.5156H100.295C99.4923 89.5156 99.1311 89.8691 99.1311 90.5476V91.27H98.556V92.1704H99.1153L99.121 94.8614Z" fill="white"/>
<path d="M84.4679 121.273L48.8923 121.26C44.6177 121.26 41.1523 117.795 41.1523 113.52L41.1678 24.3347C41.1678 20.0602 44.6332 16.5947 48.9078 16.5947H48.9232L84.4963 16.6154C88.7711 16.6154 92.2363 20.0808 92.2363 24.3554L92.2211 113.52C92.228 117.795 88.7685 121.266 84.494 121.273H84.4679Z" fill="black"/>
<path d="M84.4576 19.7422H77.5587C76.616 19.7646 75.8683 20.5435 75.8843 21.4863V22.7376C75.9059 23.6821 75.1575 24.4651 74.2132 24.4868C74.2119 24.4868 74.2109 24.4868 74.2096 24.4868H60.7649C59.8191 24.4657 59.0699 23.6819 59.091 22.736V22.735V21.476C59.1096 20.5309 58.3617 19.7481 57.4164 19.7241H54.986H48.9514C45.9594 19.7169 43.5277 22.137 43.5207 25.1292V25.1421L43.5027 112.194C43.5027 115.186 45.9284 117.612 48.9207 117.612L84.4264 117.633C87.4187 117.633 89.8444 115.207 89.8444 112.215L89.8622 25.1602C89.8622 22.1728 87.4447 19.7492 84.4576 19.7422Z" fill="white"/>
<path d="M84.9762 26.814C84.9762 26.8372 84.0783 26.863 82.9741 26.8707C81.8698 26.8785 80.9694 26.8707 80.9694 26.8475C80.9694 26.8243 81.8644 26.7959 82.9712 26.7882C84.0783 26.7804 84.9762 26.7908 84.9762 26.814Z" fill="black"/>
<path d="M84.9837 27.8385C84.9837 27.8617 84.0884 27.8875 82.9816 27.8978C81.8748 27.9081 80.9769 27.8978 80.9769 27.872C80.9769 27.8462 81.8748 27.823 82.9816 27.8127C84.0884 27.8024 84.9837 27.8153 84.9837 27.8385Z" fill="black"/>
<path d="M84.9942 28.8624C84.9942 28.8856 84.0967 28.914 82.9896 28.9217C81.8828 28.9295 80.9878 28.9217 80.9849 28.8959C80.9823 28.8701 81.8828 28.8469 82.9896 28.8366C84.0967 28.8263 84.9942 28.8392 84.9942 28.8624Z" fill="black"/>
<path d="M47.246 29.8637H47.3518H47.6433L48.7218 29.8379L48.6908 29.8663C48.6908 29.6289 48.6908 29.3683 48.6779 29.0923V28.6433C48.7127 28.4656 48.859 28.3309 49.0391 28.3105H49.5554C49.7592 28.3433 49.9088 28.5195 49.9088 28.7259C49.9088 29.0923 49.9088 29.4715 49.9217 29.8663L49.8727 29.8172H51.2324L51.1808 29.8688C51.1808 29.3219 51.1805 28.7543 51.165 28.1738V27.7429C51.1531 27.6129 51.0832 27.4952 50.9744 27.423L50.381 26.8348L49.8056 26.2697L49.5296 25.9963C49.4341 25.9034 49.359 25.8079 49.2481 25.7847C49.1405 25.7563 49.0257 25.7782 48.9359 25.844C48.8533 25.9137 48.7656 26.0117 48.6779 26.102L48.1877 26.5948C47.8807 26.9122 47.5608 27.2037 47.3286 27.4798C47.2597 27.6425 47.2364 27.8208 47.2615 27.9958V28.4731V29.2471V29.7398C47.2651 29.7992 47.2651 29.8585 47.2615 29.9179C47.2584 29.8637 47.2584 29.8095 47.2615 29.7553V29.2677C47.2615 29.0742 47.2615 28.7852 47.2434 28.4937V28.0035V27.7455C47.2429 27.6459 47.2687 27.5479 47.3182 27.4617C47.5762 27.1547 47.8704 26.8812 48.18 26.5535L48.665 26.0556C48.7527 25.9705 48.8224 25.8853 48.923 25.7976C49.0355 25.7119 49.1813 25.6825 49.318 25.7176C49.4465 25.7648 49.5595 25.8458 49.6454 25.9524L49.9243 26.2259L50.4994 26.7909L51.0956 27.374C51.1513 27.424 51.2024 27.4795 51.2478 27.5391C51.2925 27.6075 51.3175 27.6869 51.3201 27.7687V28.2022C51.3201 28.7827 51.3201 29.3503 51.333 29.8972V29.9488H51.2814H49.9217H49.8263V29.8998V28.7594C49.8299 28.5966 49.713 28.456 49.5525 28.4292H49.0572C48.9145 28.4434 48.7971 28.5474 48.7656 28.6872V29.1206V29.8946V29.9256H48.7347H47.6382H47.3518C47.3146 29.9086 47.279 29.8879 47.246 29.8637Z" fill="black"/>
<path d="M70.7242 97.8879C70.6006 97.9072 70.4753 97.9157 70.3501 97.9137L69.3336 97.9343C68.477 97.947 67.2902 97.955 65.9796 97.955C64.669 97.955 63.4822 97.955 62.6256 97.9343L61.6091 97.9137C61.484 97.9157 61.3588 97.907 61.235 97.8879C61.3586 97.867 61.484 97.8582 61.6091 97.8618L62.6256 97.8389C63.4822 97.8389 64.669 97.8208 65.9796 97.8208C67.2902 97.8208 68.4745 97.8208 69.3336 97.8389L70.3501 97.8618C70.4753 97.8582 70.6006 97.8667 70.7242 97.8879Z" fill="black"/>
<path d="M85.6289 100.22C85.6289 100.259 80.167 100.287 73.4309 100.287C66.6943 100.287 61.2324 100.259 61.2324 100.22C61.2324 100.182 66.6943 100.153 73.4309 100.153C80.167 100.153 85.6289 100.184 85.6289 100.22Z" fill="black"/>
<path d="M78.005 102.426C78.005 102.465 74.2511 102.493 69.62 102.493C64.9889 102.493 61.2324 102.465 61.2324 102.426C61.2324 102.387 64.9863 102.359 69.62 102.359C74.2537 102.359 78.005 102.38 78.005 102.426Z" fill="black"/>
<path d="M86.1114 106.691L85.3531 105.93L84.6304 106.65V104.472H86.109L86.1114 106.691ZM85.3531 105.834L85.3763 105.858L86.0445 106.528V104.542H84.7001V106.49L85.3531 105.834Z" fill="black"/>
<path d="M65.9277 106.407L65.67 106.288C65.3284 106.449 64.921 106.303 64.7603 105.961C64.5996 105.619 64.7461 105.212 65.0877 105.051C65.4295 104.89 65.8369 105.037 65.9977 105.379C66.1174 105.633 66.0691 105.934 65.8764 106.139L65.9277 106.407ZM65.3062 104.957C64.9239 104.984 64.6354 105.315 64.6623 105.698C64.6868 106.048 64.9685 106.325 65.3191 106.342C65.437 106.334 65.5511 106.298 65.6519 106.237L65.8506 106.325L65.8042 106.131C66.0622 105.849 66.0428 105.412 65.7613 105.154C65.6323 105.036 65.4631 104.971 65.2882 104.973L65.3062 104.957Z" fill="black"/>
<path d="M67.6461 106.296L67.3414 105.548L66.7665 105.032H68.1592L67.6461 106.296ZM66.8955 105.076L67.3852 105.525L67.6432 106.162L68.0821 105.066L66.8955 105.076Z" fill="black"/>
<path d="M67.3694 105.51L68.1305 105.015L68.1589 105.058L67.3973 105.554L67.3694 105.51Z" fill="black"/>
<path d="M63.7324 105.177C63.6844 104.944 63.4564 104.794 63.2234 104.842C63.0446 104.879 62.9086 105.024 62.8836 105.205C62.8514 104.969 62.6344 104.805 62.3986 104.836C62.2125 104.862 62.0645 105.004 62.0322 105.189C62.0123 105.338 62.0503 105.488 62.138 105.61C62.2252 105.729 62.3276 105.837 62.4424 105.93C62.5998 106.067 62.7417 106.188 62.8965 106.332C63.0513 106.193 63.1803 106.062 63.3351 105.922C63.4486 105.827 63.5492 105.718 63.6344 105.597C63.7208 105.475 63.7559 105.324 63.7324 105.177Z" fill="#1073BB"/>
<path d="M87.6645 108.618V108.376V107.669C87.6645 107.047 87.6645 106.121 87.6516 104.944C87.6516 102.573 87.6384 99.1237 87.6281 94.7971L87.6722 94.8409L46.4155 94.8641L46.4825 94.7971V108.618L46.418 108.554L75.941 108.582L84.5582 108.6H86.8802H87.4787H87.6851H87.4865H86.8957H84.5966L75.9926 108.618L46.4258 108.649H46.3587V108.618V94.7971V94.73H46.4309L87.6877 94.7532H87.7316V94.7971C87.7316 99.134 87.7133 102.594 87.7084 104.973V107.687V108.383C87.7084 108.543 87.6645 108.618 87.6645 108.618Z" fill="black"/>
<path d="M48.0714 106.246L48.1237 97.1079L59.5529 97.1737L59.5005 106.312L48.0714 106.246Z" fill="#EBEBEB"/>
<path d="M59.5503 97.1684H59.331H58.7066H56.3614L48.1054 97.1501L48.1673 97.0908C48.1544 99.8127 48.1389 102.93 48.1234 106.227C48.1363 106.245 47.997 106.1 48.0564 106.159H48.8433H49.6173H51.1653L54.1323 106.178L59.4832 106.216L59.429 106.273C59.4548 103.528 59.478 101.253 59.4961 99.653C59.4961 98.8583 59.5141 98.2337 59.5193 97.7974V97.3075V97.1346V97.2949V97.7768V99.6194V106.273V106.327H59.4625L54.1116 106.307L51.1446 106.291H49.5966H48.8226H48.0357L47.9661 106.221C47.9893 102.922 48.0073 99.8049 48.0254 97.0856V97.0234H48.0873L56.3691 97.0985L58.6911 97.1297H59.3026H59.4574L59.5503 97.1684Z" fill="black"/>
<path d="M48.4694 105.673L48.5153 97.6855L59.1424 97.7467L59.0962 105.734L48.4694 105.673Z" fill="#6C6B6B"/>
<path d="M48.464 105.666L52.205 100.723L54.4857 103.843L56.0543 102.191L59.091 105.728L48.464 105.666Z" fill="#F5F5F5"/>
<path d="M55.4844 100.135C55.4829 100.598 55.1062 100.973 54.6431 100.971C54.18 100.97 53.8059 100.593 53.8074 100.13C53.8087 99.6672 54.1852 99.2929 54.6483 99.2944H54.6511C55.1127 99.2957 55.4857 99.6711 55.4844 100.133V100.135Z" fill="#F5F5F5"/>
<path d="M67.3934 37.8926C67.3524 37.8995 67.3106 37.8995 67.2699 37.8926L66.9213 37.9055L65.6313 37.9287C64.5451 37.9287 63.0513 37.9467 61.3846 37.9467C59.7179 37.9467 58.2241 37.9467 57.1379 37.9287L55.8479 37.9055L55.4971 37.8926C55.4571 37.8995 55.416 37.8995 55.3758 37.8926C55.4155 37.8828 55.4563 37.8784 55.4971 37.8797H55.8479L57.1379 37.859C58.2241 37.8461 59.7179 37.8384 61.3846 37.8384C63.0513 37.8384 64.5451 37.8384 65.6313 37.859L66.9213 37.8797H67.2699C67.3114 37.8786 67.3529 37.8828 67.3934 37.8926Z" fill="black"/>
<path d="M84.277 88.4046L83.1521 87.2743L82.0762 88.345V85.1094H84.2744L84.277 88.4046ZM83.1521 87.1349L83.1856 87.1687L84.1789 88.1644V85.2128H82.1769V88.1079L83.1521 87.1349Z" fill="black"/>
<path d="M55.6751 88.0634L55.1591 87.8286C54.4924 88.1387 53.7006 87.8495 53.3908 87.1829C53.0806 86.5162 53.3696 85.7241 54.0363 85.4143C54.7029 85.1042 55.4947 85.3934 55.8049 86.06C56.0353 86.5551 55.9395 87.1408 55.5642 87.5371L55.6751 88.0634ZM54.4444 85.2125C53.6921 85.2187 53.0874 85.8338 53.0938 86.5864C53.1003 87.3387 53.7153 87.9434 54.4677 87.937C54.6999 87.9231 54.9248 87.8519 55.123 87.7306L55.1462 87.7177L55.5332 87.8906L55.4455 87.5085L55.4635 87.4907C55.971 86.937 55.9333 86.0771 55.3797 85.5696C55.1248 85.3361 54.7902 85.2081 54.4444 85.2125Z" fill="black"/>
<path d="M59.0601 87.8388L58.4563 86.3656L57.3263 85.3336L60.0714 85.313L59.0601 87.8388ZM57.5817 85.4317L58.5466 86.3166L59.0626 87.5705L59.9244 85.4136L57.5817 85.4317Z" fill="black"/>
<path d="M58.5201 86.2823L60.0167 85.3086L60.0717 85.393L58.5748 86.3669L58.5201 86.2823Z" fill="black"/>
<path d="M51.3564 85.6563C51.2656 85.1966 50.8193 84.8973 50.3593 84.9878C50.0019 85.0585 49.729 85.3493 49.6818 85.7105C49.6126 85.2469 49.1807 84.9269 48.7171 84.9958C48.3582 85.0492 48.0729 85.3253 48.0073 85.6821C47.9686 85.9739 48.0435 86.2696 48.2163 86.5077C48.3894 86.7428 48.5915 86.9551 48.8175 87.1398C49.1245 87.3978 49.406 87.6558 49.713 87.9319C50.0123 87.6584 50.2703 87.4004 50.5721 87.1243C50.795 86.9368 50.9934 86.7219 51.1629 86.4845C51.3306 86.2433 51.4 85.9471 51.3564 85.6563Z" fill="#1073BB"/>
<path d="M51.1059 36.0298C52.1346 36.0298 52.9687 36.8636 52.9687 37.8925C52.9687 38.9214 52.1346 39.7553 51.1059 39.7553C50.0773 39.7553 49.2432 38.9214 49.2432 37.8925C49.2432 36.8636 50.0773 36.0298 51.1059 36.0298Z" fill="#EBEBEB"/>
<path d="M83.5752 77.7228C83.5752 77.7615 75.7679 77.7925 66.1396 77.7925C56.511 77.7925 48.7014 77.7615 48.7014 77.7228C48.7014 77.6841 56.5082 77.6558 66.1396 77.6558C75.7705 77.6558 83.5752 77.6867 83.5752 77.7228Z" fill="black"/>
<path d="M83.5752 74.82C83.5752 74.8561 75.7679 74.8871 66.1396 74.8871C56.511 74.8871 48.7014 74.8561 48.7014 74.82C48.7014 74.7839 56.5082 74.7529 66.1396 74.7529C75.7705 74.7529 83.5752 74.7839 83.5752 74.82Z" fill="black"/>
<path d="M67.6824 80.6667C67.6824 80.7028 63.4332 80.7338 58.1932 80.7338C52.9532 80.7338 48.7014 80.7028 48.7014 80.6667C48.7014 80.6303 52.9506 80.5996 58.1932 80.5996C63.4357 80.5996 67.6824 80.6303 67.6824 80.6667Z" fill="black"/>
<path d="M65.3424 112.305C65.3354 112.715 64.9969 113.042 64.5864 113.035C64.1762 113.028 63.8493 112.689 63.8566 112.279C63.8638 111.872 64.1974 111.546 64.6048 111.549C65.0163 111.553 65.3468 111.891 65.3424 112.302V112.305Z" fill="black"/>
<path d="M67.6283 112.315C67.6198 112.724 67.2813 113.049 66.8723 113.04C66.4637 113.032 66.1394 112.693 66.1479 112.284C66.1561 111.88 66.4864 111.558 66.8904 111.56C67.3006 111.562 67.6311 111.897 67.6283 112.308V112.315Z" fill="black"/>
<path d="M69.9322 112.326C69.9237 112.734 69.5852 113.059 69.1765 113.051C68.7676 113.042 68.4432 112.703 68.4518 112.295C68.46 111.891 68.7905 111.568 69.1945 111.57C69.6061 111.574 69.9366 111.911 69.9322 112.323V112.326Z" fill="black"/>
<path d="M46.6503 41.5767H87.9122V66.8091H46.6503V41.5767Z" fill="#6C6B6B"/>
<path d="M50.4609 66.8174L62.2825 50.9917L69.6149 60.8886L74.5814 55.5944L84.326 66.8071L50.4609 66.8174Z" fill="#F5F5F5"/>
<path d="M72.7214 49.0482C72.7227 50.5216 71.5295 51.7172 70.056 51.7185C68.5826 51.7198 67.3873 50.527 67.3857 49.0536C67.3845 47.5804 68.5777 46.3848 70.0509 46.3833H70.0535C71.5256 46.3833 72.7199 47.5758 72.7214 49.0482Z" fill="#F5F5F5"/>
<path d="M87.8013 90.2615C87.8013 89.7223 87.7752 66.9283 87.7393 33.1816L87.8013 33.2435H46.5442L46.6116 33.1765V90.2564L46.5546 90.2025L87.8167 90.2564L46.5546 90.3131H46.5004V90.2564C46.5004 74.2787 46.5004 54.5234 46.4877 33.1765V33.1094H46.5597H87.8167H87.8787V33.1687C87.8658 50.06 87.8554 64.3351 87.8477 74.392C87.8477 79.4126 87.8348 83.3781 87.832 86.0925V89.1885V89.9829C87.832 90.1635 87.8013 90.2615 87.8013 90.2615Z" fill="black"/>
<path d="M68.628 97.3434L69.5413 94.276C69.7013 93.6104 69.9128 92.8258 70.1966 91.9308C70.4546 91.1256 71.1099 90.2793 71.7085 89.6705C72.6399 88.7236 73.0836 88.7184 73.708 88.2153C73.7648 88.1792 73.8293 88.1255 73.8834 88.0969C74.0014 88.0327 74.1051 87.9447 74.1879 87.8389C74.7271 87.2558 74.2085 86.3502 73.112 86.4377C72.289 86.5022 70.9422 86.7372 68.7544 88.9947C68.726 89.0306 68.6976 89.0592 68.6718 89.0928C67.5237 90.5866 66.4453 86.3242 66.2492 84.7377C66.1091 83.8322 65.2616 83.2117 64.356 83.3518C64.235 83.3706 64.1161 83.4026 64.002 83.4477L58.6718 85.94C58.1632 85.7927 57.6212 85.8108 57.1238 85.9916C56.3508 86.263 55.9106 87.077 56.1072 87.8722L58.2719 96.492L51.9225 117.623H65.6094L68.628 97.3434Z" fill="#FFBD9D"/>
<path d="M79.1544 77.9368L74.9234 86.2289L72.8076 85.6407L62.178 94.2914C61.276 95.0295 59.9501 94.9152 59.1877 94.0334L55.1371 89.3301C55.1371 89.3301 63.3028 85.8135 64.8121 82.9033C66.3214 79.993 64.5774 79.33 64.5774 79.33L68.4192 74.9644L79.1544 77.9368Z" fill="#1073BB"/>
<path d="M56.422 88.7519C56.9148 89.6446 57.4153 90.5579 58.1403 91.2623C58.8653 91.9666 59.856 92.4671 60.888 92.3639C61.92 92.2607 62.8617 91.4197 62.872 90.4031C63.357 90.7669 64.1027 90.5708 64.5051 90.1142C64.9076 89.6575 65.0392 89.0254 65.0856 88.4191C65.7461 88.8087 66.6646 88.5017 67.1058 87.8747C67.516 87.2135 67.6107 86.4041 67.3638 85.6663C67.1125 84.941 66.7549 84.2566 66.3034 83.6358C66.8194 83.6771 67.3509 83.7132 67.805 83.4836C68.259 83.254 68.579 82.6502 68.3029 82.2168C68.1215 81.9748 67.8584 81.8071 67.5624 81.7447C66.7652 81.4867 66.2079 81.2957 65.3772 81.3912C65.1863 81.3912 65.71 83.579 60.5061 86.5667C57.4179 88.334 56.422 88.7519 56.422 88.7519Z" fill="#452B45"/>
<path d="M56.76 87.3563C57.5985 88.1612 58.1713 89.0513 59.0511 89.8614C59.4509 90.2306 60.0831 90.927 60.5991 91.0199C61.1151 91.113 61.4763 91.0431 61.6878 90.5428C61.8607 90.1375 61.5511 89.5828 61.3395 89.2528C60.7797 88.3728 60.243 87.6865 59.8251 87.0028C59.6264 86.6831 59.8818 86.6155 59.9747 86.7652C60.3772 87.1831 60.9809 87.5394 61.3421 88.0013C61.8375 88.623 61.9252 89.4512 63.2203 89.1883C63.3934 89.1599 63.5578 89.0921 63.7002 88.9894C64.1878 88.6153 64.2162 87.9574 64.0047 87.4414C63.822 87.0431 63.5782 86.6754 63.2823 86.3524C63.8344 86.9744 64.4355 87.6426 65.3127 87.6994C65.8205 87.7608 66.3117 87.4951 66.5382 87.0363C66.7962 86.4481 66.4273 85.8779 66.0532 85.4184C65.3909 84.6019 64.6543 83.8488 63.8524 83.1689C63.5532 82.9171 63.1754 82.7775 62.7843 82.7739C62.3302 82.7739 61.7523 82.8567 61.4943 83.2486C61.1963 83.631 61.0686 84.1189 61.1409 84.5982C61.1409 84.5982 60.0057 84.0226 59.0923 84.6238C58.5301 85.0185 58.1261 85.6001 57.952 86.2649L56.76 87.3563Z" fill="#FFBD9D"/>
<path d="M62.8101 82.5267C62.4383 82.0948 62.3746 81.4774 62.6502 80.9787C62.8437 80.5994 63.0862 80.2305 63.3339 80.1479C64.4149 79.7841 69.1414 80.602 69.0976 81.6495C69.0537 82.6969 68.7077 83.1975 66.1461 82.8285C65.6946 82.764 64.9874 82.6763 64.9874 82.6763L64.3684 83.6051L62.8101 82.5267Z" fill="#FFBD9D"/>
<path d="M63.6563 86.9173C63.0361 85.8946 62.1315 85.0744 61.0531 84.5571C61.2291 84.5853 61.3986 84.6446 61.5536 84.7323C62.3302 85.1077 62.9822 85.6988 63.4319 86.4349C63.5361 86.5804 63.6122 86.7439 63.6563 86.9173Z" fill="#EB996D"/>
<path d="M64.451 83.6957C64.4278 83.7163 64.1156 83.4637 63.6899 83.2032C63.5119 83.0902 63.3277 82.9875 63.1378 82.8956C62.9907 82.8288 62.8927 82.8107 62.8953 82.7901C62.8978 82.7695 63.0062 82.7591 63.1687 82.8084C63.378 82.8755 63.5774 82.9699 63.7621 83.0891C64.1982 83.3551 64.4845 83.6673 64.451 83.6957Z" fill="#EB996D"/>
<path d="M65.2456 82.7207C64.9383 82.7566 64.6267 82.7213 64.3349 82.6175C64.1218 82.5523 63.9234 82.4452 63.7518 82.3025C63.6228 82.1916 63.5686 82.1013 63.5815 82.0884C63.8297 82.2489 64.0954 82.381 64.3736 82.4808C64.6695 82.5414 64.9608 82.6214 65.2456 82.7207Z" fill="#EB996D"/>
<path d="M60.6532 88.2154C60.4904 88.0446 60.3459 87.8568 60.2223 87.6556C59.9277 87.1788 59.5554 86.7551 59.1207 86.4017C58.6702 86.072 58.1116 85.9249 57.5572 85.9891C57.3299 86.0296 57.1085 86.1001 56.8993 86.1981C56.8993 86.1981 56.9457 86.1437 57.0515 86.0792C57.2022 85.9878 57.3683 85.9249 57.5417 85.8934C58.125 85.7992 58.7221 85.9432 59.1981 86.2933C59.647 86.654 60.0221 87.0985 60.3023 87.6016C60.4365 87.7962 60.5539 88.0013 60.6532 88.2154Z" fill="#EB996D"/>
<path d="M73.6022 61.034C73.6022 61.034 67.4102 59.664 58.6924 51.2842C49.9746 42.9043 45.8827 31.7665 44.8275 31.8284C43.7722 31.8903 39.1024 29.7205 30.2427 48.9906C21.383 68.2606 24.8737 72.7266 26.6307 72.7008C28.3877 72.675 40.3615 69.3287 47.8383 70.1775C55.3152 71.0263 64.9257 74.9247 64.9257 74.9247L73.6022 61.034Z" fill="#1073BB"/>
<path d="M86.7574 71.5373L84.6444 75.5541L83.6978 77.3601C82.3998 79.8291 79.3964 80.8495 76.8631 79.6821L63.5892 75.0564L71.329 57.4092L84.5904 64.4755C87.1297 65.8344 88.0974 68.9877 86.7574 71.5373Z" fill="#1073BB"/>
<path d="M86.7574 71.5373L84.6444 75.5541L83.6978 77.3601C82.3998 79.8291 79.3964 80.8495 76.8631 79.6821L63.5892 75.0564L71.329 57.4092L84.5904 64.4755C87.1297 65.8344 88.0974 68.9877 86.7574 71.5373Z" fill="#DDDFD4"/>
<path d="M30.9496 49.3417C26.236 59.7803 24.2726 69.0838 26.5636 70.1184C28.8547 71.153 34.5384 63.5317 39.2521 53.0904C43.9657 42.6491 45.9291 33.3508 43.6381 32.3137C41.347 31.2765 35.6633 38.903 30.9496 49.3417Z" fill="#1073BB"/>
<path d="M30.9496 49.3417C26.236 59.7803 24.2726 69.0838 26.5636 70.1184C28.8547 71.153 34.5384 63.5317 39.2521 53.0904C43.9657 42.6491 45.9291 33.3508 43.6381 32.3137C41.347 31.2765 35.6633 38.903 30.9496 49.3417Z" fill="#DDDFD4"/>
<path d="M87.898 77.3422L84.2989 76.2119L86.5254 71.981L89.2241 73.658L87.898 77.3422Z" fill="#1073BB"/>
<path d="M86.5254 71.981L84.2989 76.2119L85.0393 76.4444L86.8479 72.1796L86.5254 71.981Z" fill="#DDDFD4"/>
<path d="M84.0434 72.9564C83.9918 73.0722 82.1961 72.3759 80.0341 71.4084C77.8721 70.4409 76.1641 69.543 76.2131 69.4267C76.2621 69.3106 78.0604 70.01 80.225 70.9876C82.3896 71.9654 84.0976 72.8403 84.0434 72.9564Z" fill="#1073BB"/>
<path d="M85.1528 70.4353C85.0961 70.5489 83.4707 69.8652 81.523 68.9054C79.5749 67.9459 78.0424 67.0762 78.0991 66.9601C78.1559 66.844 79.7787 67.5303 81.7266 68.49C83.6748 69.4498 85.2096 70.3192 85.1528 70.4353Z" fill="#1073BB"/>
<path d="M82.65 75.6008C82.6322 75.6625 82.2037 75.5645 81.5226 75.3428C81.182 75.2371 80.7769 75.1026 80.3309 74.9504C79.8843 74.7985 79.4276 74.5557 78.9348 74.3315C76.9663 73.4182 75.4624 72.5255 75.5112 72.4169C75.5604 72.3085 77.1778 73.0077 79.1232 73.9135C79.6134 74.1351 80.0674 74.3779 80.4957 74.5557C80.9243 74.734 81.3087 74.8913 81.6312 75.0358C82.2762 75.3325 82.6681 75.5389 82.65 75.6008Z" fill="#1073BB"/>
<path d="M40.5601 47.0222C40.5601 47.0222 35.1783 43.6836 32.2345 50.9567C29.2907 58.2297 34.9512 59.4242 34.9512 59.4242C37.3955 55.5751 39.2841 51.3996 40.5601 47.0222Z" fill="#1073BB"/>
<path d="M46.2852 38.353C46.3187 38.353 46.2413 38.8535 46.0762 39.7436C45.9111 40.6337 45.6634 41.9212 45.3177 43.5053L44.5695 46.0517C44.4335 46.5076 44.2934 46.9798 44.1489 47.4682L43.9296 48.2086C43.8497 48.4666 43.7439 48.7014 43.651 48.9517L42.4358 52.0889C42.33 52.3624 42.2217 52.6359 42.1159 52.912C42.0101 53.188 41.8579 53.4512 41.7366 53.7247L40.9368 55.3759L40.1345 57.0245C39.9977 57.2825 39.8765 57.5714 39.7294 57.8243C39.5823 58.0771 39.4275 58.3403 39.2805 58.5854L37.5648 61.4827C37.4255 61.7098 37.3068 61.9445 37.152 62.1613L36.7056 62.7934L35.8491 64.0008L34.3011 66.1603C33.2691 67.4064 32.4074 68.3894 31.814 69.0731C31.5224 69.4433 31.2007 69.7885 30.8516 70.1051C31.0941 69.7023 31.3702 69.321 31.6772 68.9647C32.25 68.2346 33.0575 67.2129 34.0482 65.9564L35.5317 63.7815L36.3625 62.5715C36.507 62.3651 36.6515 62.1535 36.7985 61.9394C36.9456 61.7252 37.0565 61.4905 37.1984 61.2608L38.8935 58.3661L39.3347 57.6076C39.4869 57.3496 39.5927 57.0916 39.7346 56.8129L40.5292 55.1746C40.7872 54.6199 41.0633 54.0755 41.3264 53.5363C41.4503 53.2783 41.5999 53.0048 41.7031 52.7314L42.0256 51.9161L43.2588 48.8201C43.3543 48.5621 43.4627 48.3325 43.5452 48.0848C43.6278 47.8371 43.6974 47.5946 43.7723 47.3521L44.2109 45.9511L45.0029 43.4356L45.8982 39.7204C45.988 39.2545 46.1175 38.797 46.2852 38.353Z" fill="#DDDFD4"/>
</svg>
